0
SECTION
2
ENTITIES
0
LINE
8
RAINBOW_CONTOUR
62
1
10
35
20
25
30
3.25
11
36
21
25
31
-9.850000000000001
0
LINE
8
RAINBOW_CONTOUR
62
1
10
70
20
25
30
-13.25
11
71
21
25
31
-0.3500000000000014
0
LINE
8
RAINBOW_CONTOUR
62
1
10
34
20
26
30
3.3000000000000007
11
35
21
26
31
-9.8
0
LINE
8
RAINBOW_CONTOUR
62
1
10
69
20
26
30
-13.2
11
70
21
26
31
-0.3000000000000007
0
LINE
8
RAINBOW_CONTOUR
62
1
10
33
20
27
30
3.3499999999999996
11
35
21
27
31
-9.85
0
LINE
8
RAINBOW_CONTOUR
62
1
10
68
20
27
30
-13.149999999999999
11
70
21
27
31
-0.3500000000000014
0
LINE
8
RAINBOW_CONTOUR
62
1
10
32
20
28
30
3.4000000000000004
11
35
21
28
31
-9.9
0
LINE
8
RAINBOW_CONTOUR
62
1
10
67
20
28
30
-13.100000000000001
11
70
21
28
31
-0.3999999999999986
0
LINE
8
RAINBOW_CONTOUR
62
1
10
31
20
29
30
3.4499999999999993
11
35
21
29
31
-9.95
0
LINE
8
RAINBOW_CONTOUR
62
1
10
66
20
29
30
-13.05
11
70
21
29
31
-0.45000000000000284
0
LINE
8
RAINBOW_CONTOUR
62
1
10
30
20
30
30
3.5
11
31
21
30
31
-9.600000000000001
0
LINE
8
RAINBOW_CONTOUR
62
1
10
75
20
30
30
-14
11
76
21
30
31
-1.1000000000000014
0
LINE
8
RAINBOW_CONTOUR
62
1
10
29
20
31
30
3.549999999999999
11
30
21
31
31
-9.55
0
LINE
8
RAINBOW_CONTOUR
62
1
10
74
20
31
30
-13.95
11
75
21
31
31
-1.0500000000000007
0
LINE
8
RAINBOW_CONTOUR
62
1
10
28
20
32
30
3.6000000000000014
11
30
21
32
31
-9.6
0
LINE
8
RAINBOW_CONTOUR
62
1
10
73
20
32
30
-13.899999999999999
11
75
21
32
31
-1.1000000000000014
0
LINE
8
RAINBOW_CONTOUR
62
1
10
27
20
33
30
3.6500000000000004
11
30
21
33
31
-9.65
0
LINE
8
RAINBOW_CONTOUR
62
1
10
72
20
33
30
-13.850000000000001
11
75
21
33
31
-1.1499999999999986
0
LINE
8
RAINBOW_CONTOUR
62
1
10
26
20
34
30
3.6999999999999993
11
30
21
34
31
-9.700000000000001
0
LINE
8
RAINBOW_CONTOUR
62
1
10
71
20
34
30
-13.8
11
75
21
34
31
-1.1999999999999993
0
LINE
8
RAINBOW_CONTOUR
62
1
10
25
20
35
30
3.75
11
26
21
35
31
-9.350000000000001
0
LINE
8
RAINBOW_CONTOUR
62
1
10
80
20
35
30
-14.75
11
81
21
35
31
-1.8500000000000014
0
LINE
8
RAINBOW_CONTOUR
62
1
10
24
20
36
30
3.8000000000000007
11
25
21
36
31
-9.3
0
LINE
8
RAINBOW_CONTOUR
62
1
10
79
20
36
30
-14.7
11
80
21
36
31
-1.8000000000000007
0
LINE
8
RAINBOW_CONTOUR
62
1
10
23
20
37
30
3.8500000000000014
11
25
21
37
31
-9.35
0
LINE
8
RAINBOW_CONTOUR
62
1
10
78
20
37
30
-14.649999999999999
11
80
21
37
31
-1.8500000000000014
0
LINE
8
RAINBOW_CONTOUR
62
1
10
22
20
38
30
3.8999999999999986
11
25
21
38
31
-9.399999999999999
0
LINE
8
RAINBOW_CONTOUR
62
1
10
77
20
38
30
-14.600000000000001
11
80
21
38
31
-1.8999999999999986
0
LINE
8
RAINBOW_CONTOUR
62
1
10
21
20
39
30
3.9499999999999993
11
25
21
39
31
-9.450000000000001
0
LINE
8
RAINBOW_CONTOUR
62
1
10
76
20
39
30
-14.55
11
80
21
39
31
-1.9499999999999993
0
LINE
8
RAINBOW_CONTOUR
62
1
10
25
20
40
30
3.5
11
26
21
40
31
-9.600000000000001
0
LINE
8
RAINBOW_CONTOUR
62
1
10
80
20
40
30
-15
11
81
21
40
31
-2.1000000000000014
0
LINE
8
RAINBOW_CONTOUR
62
1
10
24
20
41
30
3.549999999999999
11
25
21
41
31
-9.55
0
LINE
8
RAINBOW_CONTOUR
62
1
10
79
20
41
30
-14.95
11
80
21
41
31
-2.049999999999997
0
LINE
8
RAINBOW_CONTOUR
62
1
10
23
20
42
30
3.6000000000000014
11
25
21
42
31
-9.6
0
LINE
8
RAINBOW_CONTOUR
62
1
10
78
20
42
30
-14.899999999999999
11
80
21
42
31
-2.1000000000000014
0
LINE
8
RAINBOW_CONTOUR
62
1
10
22
20
43
30
3.6500000000000004
11
25
21
43
31
-9.65
0
LINE
8
RAINBOW_CONTOUR
62
1
10
77
20
43
30
-14.850000000000001
11
80
21
43
31
-2.1499999999999986
0
LINE
8
RAINBOW_CONTOUR
62
1
10
21
20
44
30
3.6999999999999993
11
25
21
44
31
-9.700000000000001
0
LINE
8
RAINBOW_CONTOUR
62
1
10
76
20
44
30
-14.8
11
80
21
44
31
-2.1999999999999993
0
LINE
8
RAINBOW_CONTOUR
62
1
10
25
20
45
30
3.25
11
26
21
45
31
-9.850000000000001
0
LINE
8
RAINBOW_CONTOUR
62
1
10
80
20
45
30
-15.25
11
81
21
45
31
-2.3500000000000014
0
LINE
8
RAINBOW_CONTOUR
62
1
10
24
20
46
30
3.3000000000000007
11
25
21
46
31
-9.8
0
LINE
8
RAINBOW_CONTOUR
62
1
10
79
20
46
30
-15.2
11
80
21
46
31
-2.299999999999997
0
LINE
8
RAINBOW_CONTOUR
62
1
10
23
20
47
30
3.3499999999999996
11
25
21
47
31
-9.85
0
LINE
8
RAINBOW_CONTOUR
62
1
10
78
20
47
30
-15.149999999999999
11
80
21
47
31
-2.3500000000000014
0
LINE
8
RAINBOW_CONTOUR
62
1
10
22
20
48
30
3.4000000000000004
11
25
21
48
31
-9.9
0
LINE
8
RAINBOW_CONTOUR
62
1
10
77
20
48
30
-15.100000000000001
11
80
21
48
31
-2.3999999999999986
0
LINE
8
RAINBOW_CONTOUR
62
1
10
21
20
49
30
3.4499999999999993
11
25
21
49
31
-9.95
0
LINE
8
RAINBOW_CONTOUR
62
1
10
76
20
49
30
-15.05
11
80
21
49
31
-2.450000000000003
0
LINE
8
RAINBOW_CONTOUR
62
1
10
25
20
50
30
3
11
26
21
50
31
-10.1
0
LINE
8
RAINBOW_CONTOUR
62
1
10
80
20
50
30
-15.5
11
81
21
50
31
-2.6000000000000014
0
LINE
8
RAINBOW_CONTOUR
62
1
10
24
20
51
30
3.0500000000000007
11
25
21
51
31
-10.049999999999999
0
LINE
8
RAINBOW_CONTOUR
62
1
10
79
20
51
30
-15.450000000000003
11
80
21
51
31
-2.5500000000000007
0
LINE
8
RAINBOW_CONTOUR
62
1
10
23
20
52
30
3.0999999999999996
11
25
21
52
31
-10.100000000000001
0
LINE
8
RAINBOW_CONTOUR
62
1
10
78
20
52
30
-15.399999999999999
11
80
21
52
31
-2.6000000000000014
0
LINE
8
RAINBOW_CONTOUR
62
1
10
22
20
53
30
3.1500000000000004
11
25
21
53
31
-10.15
0
LINE
8
RAINBOW_CONTOUR
62
1
10
77
20
53
30
-15.350000000000001
11
80
21
53
31
-2.6499999999999986
0
LINE
8
RAINBOW_CONTOUR
62
1
10
21
20
54
30
3.1999999999999993
11
25
21
54
31
-10.200000000000001
0
LINE
8
RAINBOW_CONTOUR
62
1
10
76
20
54
30
-15.3
11
80
21
54
31
-2.700000000000003
0
LINE
8
RAINBOW_CONTOUR
62
1
10
25
20
55
30
2.75
11
26
21
55
31
-10.350000000000001
0
LINE
8
RAINBOW_CONTOUR
62
1
10
80
20
55
30
-15.75
11
81
21
55
31
-2.8500000000000014
0
LINE
8
RAINBOW_CONTOUR
62
1
10
24
20
56
30
2.8000000000000007
11
25
21
56
31
-10.3
0
LINE
8
RAINBOW_CONTOUR
62
1
10
79
20
56
30
-15.7
11
80
21
56
31
-2.8000000000000007
0
LINE
8
RAINBOW_CONTOUR
62
1
10
23
20
57
30
2.8499999999999996
11
25
21
57
31
-10.350000000000001
0
LINE
8
RAINBOW_CONTOUR
62
1
10
78
20
57
30
-15.649999999999999
11
80
21
57
31
-2.8500000000000014
0
LINE
8
RAINBOW_CONTOUR
62
1
10
22
20
58
30
2.8999999999999986
11
25
21
58
31
-10.399999999999999
0
LINE
8
RAINBOW_CONTOUR
62
1
10
77
20
58
30
-15.600000000000001
11
80
21
58
31
-2.8999999999999986
0
LINE
8
RAINBOW_CONTOUR
62
1
10
21
20
59
30
2.9499999999999993
11
25
21
59
31
-10.450000000000001
0
LINE
8
RAINBOW_CONTOUR
62
1
10
76
20
59
30
-15.550000000000004
11
80
21
59
31
-2.950000000000003
0
LINE
8
RAINBOW_CONTOUR
62
1
10
25
20
60
30
2.5
11
26
21
60
31
-10.600000000000001
0
LINE
8
RAINBOW_CONTOUR
62
1
10
80
20
60
30
-16
11
81
21
60
31
-3.1000000000000014
0
LINE
8
RAINBOW_CONTOUR
62
1
10
24
20
61
30
2.5500000000000007
11
25
21
61
31
-10.55
0
LINE
8
RAINBOW_CONTOUR
62
1
10
79
20
61
30
-15.95
11
80
21
61
31
-3.0500000000000007
0
LINE
8
RAINBOW_CONTOUR
62
1
10
23
20
62
30
2.6000000000000014
11
25
21
62
31
-10.6
0
LINE
8
RAINBOW_CONTOUR
62
1
10
78
20
62
30
-15.899999999999999
11
80
21
62
31
-3.1000000000000014
0
LINE
8
RAINBOW_CONTOUR
62
1
10
22
20
63
30
2.6499999999999986
11
25
21
63
31
-10.649999999999999
0
LINE
8
RAINBOW_CONTOUR
62
1
10
77
20
63
30
-15.850000000000001
11
80
21
63
31
-3.1499999999999986
0
LINE
8
RAINBOW_CONTOUR
62
1
10
21
20
64
30
2.6999999999999993
11
25
21
64
31
-10.700000000000001
0
LINE
8
RAINBOW_CONTOUR
62
1
10
76
20
64
30
-15.8
11
80
21
64
31
-3.1999999999999993
0
LINE
8
RAINBOW_CONTOUR
62
1
10
25
20
65
30
2.25
11
26
21
65
31
-10.850000000000001
0
LINE
8
RAINBOW_CONTOUR
62
1
10
80
20
65
30
-16.25
11
81
21
65
31
-3.3500000000000014
0
LINE
8
RAINBOW_CONTOUR
62
1
10
24
20
66
30
2.299999999999999
11
25
21
66
31
-10.8
0
LINE
8
RAINBOW_CONTOUR
62
1
10
79
20
66
30
-16.2
11
80
21
66
31
-3.299999999999997
0
LINE
8
RAINBOW_CONTOUR
62
1
10
23
20
67
30
2.3500000000000014
11
25
21
67
31
-10.85
0
LINE
8
RAINBOW_CONTOUR
62
1
10
78
20
67
30
-16.15
11
80
21
67
31
-3.3500000000000014
0
LINE
8
RAINBOW_CONTOUR
62
1
10
22
20
68
30
2.4000000000000004
11
25
21
68
31
-10.9
0
LINE
8
RAINBOW_CONTOUR
62
1
10
77
20
68
30
-16.1
11
80
21
68
31
-3.3999999999999986
0
LINE
8
RAINBOW_CONTOUR
62
1
10
21
20
69
30
2.4499999999999993
11
25
21
69
31
-10.950000000000001
0
LINE
8
RAINBOW_CONTOUR
62
1
10
76
20
69
30
-16.05
11
80
21
69
31
-3.4499999999999993
0
LINE
8
RAINBOW_CONTOUR
62
1
10
30
20
70
30
1.5
11
31
21
70
31
-11.600000000000001
0
LINE
8
RAINBOW_CONTOUR
62
1
10
75
20
70
30
-16
11
76
21
70
31
-3.1000000000000014
0
LINE
8
RAINBOW_CONTOUR
62
1
10
29
20
71
30
1.5500000000000007
11
30
21
71
31
-11.55
0
LINE
8
RAINBOW_CONTOUR
62
1
10
74
20
71
30
-15.95
11
75
21
71
31
-3.0500000000000007
0
LINE
8
RAINBOW_CONTOUR
62
1
10
28
20
72
30
1.6000000000000014
11
30
21
72
31
-11.600000000000001
0
LINE
8
RAINBOW_CONTOUR
62
1
10
73
20
72
30
-15.899999999999999
11
75
21
72
31
-3.1000000000000014
0
LINE
8
RAINBOW_CONTOUR
62
1
10
27
20
73
30
1.6499999999999986
11
30
21
73
31
-11.649999999999999
0
LINE
8
RAINBOW_CONTOUR
62
1
10
72
20
73
30
-15.850000000000001
11
75
21
73
31
-3.1499999999999986
0
LINE
8
RAINBOW_CONTOUR
62
1
10
26
20
74
30
1.6999999999999993
11
30
21
74
31
-11.7
0
LINE
8
RAINBOW_CONTOUR
62
1
10
71
20
74
30
-15.8
11
75
21
74
31
-3.1999999999999993
0
LINE
8
RAINBOW_CONTOUR
62
1
10
35
20
75
30
0.75
11
36
21
75
31
-12.350000000000001
0
LINE
8
RAINBOW_CONTOUR
62
1
10
70
20
75
30
-15.75
11
71
21
75
31
-2.8500000000000014
0
LINE
8
RAINBOW_CONTOUR
62
1
10
34
20
76
30
0.8000000000000007
11
35
21
76
31
-12.3
0
LINE
8
RAINBOW_CONTOUR
62
1
10
69
20
76
30
-15.7
11
70
21
76
31
-2.8000000000000007
0
LINE
8
RAINBOW_CONTOUR
62
1
10
33
20
77
30
0.8500000000000014
11
35
21
77
31
-12.350000000000001
0
LINE
8
RAINBOW_CONTOUR
62
1
10
68
20
77
30
-15.649999999999999
11
70
21
77
31
-2.8500000000000014
0
LINE
8
RAINBOW_CONTOUR
62
1
10
32
20
78
30
0.8999999999999986
11
35
21
78
31
-12.399999999999999
0
LINE
8
RAINBOW_CONTOUR
62
1
10
67
20
78
30
-15.600000000000001
11
70
21
78
31
-2.8999999999999986
0
LINE
8
RAINBOW_CONTOUR
62
1
10
31
20
79
30
0.9499999999999993
11
35
21
79
31
-12.45
0
LINE
8
RAINBOW_CONTOUR
62
1
10
66
20
79
30
-15.550000000000004
11
70
21
79
31
-2.950000000000003
0
LINE
8
RAINBOW_CONTOUR
62
1
10
35
20
25
30
3.25
11
36
21
25
31
-9.850000000000001
0
LINE
8
RAINBOW_CONTOUR
62
1
10
70
20
25
30
-13.25
11
71
21
25
31
-0.3500000000000014
0
LINE
8
RAINBOW_CONTOUR
62
1
10
34
20
26
30
3.3000000000000007
11
35
21
26
31
-9.8
0
LINE
8
RAINBOW_CONTOUR
62
1
10
69
20
26
30
-13.2
11
70
21
26
31
-0.3000000000000007
0
LINE
8
RAINBOW_CONTOUR
62
1
10
33
20
27
30
3.3499999999999996
11
35
21
27
31
-9.85
0
LINE
8
RAINBOW_CONTOUR
62
1
10
68
20
27
30
-13.149999999999999
11
70
21
27
31
-0.3500000000000014
0
LINE
8
RAINBOW_CONTOUR
62
1
10
32
20
28
30
3.4000000000000004
11
35
21
28
31
-9.9
0
LINE
8
RAINBOW_CONTOUR
62
1
10
67
20
28
30
-13.100000000000001
11
70
21
28
31
-0.3999999999999986
0
LINE
8
RAINBOW_CONTOUR
62
1
10
31
20
29
30
3.4499999999999993
11
35
21
29
31
-9.95
0
LINE
8
RAINBOW_CONTOUR
62
1
10
66
20
29
30
-13.05
11
70
21
29
31
-0.45000000000000284
0
LINE
8
RAINBOW_CONTOUR
62
1
10
30
20
30
30
3.5
11
31
21
30
31
-9.600000000000001
0
LINE
8
RAINBOW_CONTOUR
62
1
10
75
20
30
30
-14
11
76
21
30
31
-1.1000000000000014
0
LINE
8
RAINBOW_CONTOUR
62
1
10
29
20
31
30
3.549999999999999
11
30
21
31
31
-9.55
0
LINE
8
RAINBOW_CONTOUR
62
1
10
74
20
31
30
-13.95
11
75
21
31
31
-1.0500000000000007
0
LINE
8
RAINBOW_CONTOUR
62
1
10
28
20
32
30
3.6000000000000014
11
30
21
32
31
-9.6
0
LINE
8
RAINBOW_CONTOUR
62
1
10
73
20
32
30
-13.899999999999999
11
75
21
32
31
-1.1000000000000014
0
LINE
8
RAINBOW_CONTOUR
62
1
10
27
20
33
30
3.6500000000000004
11
30
21
33
31
-9.65
0
LINE
8
RAINBOW_CONTOUR
62
1
10
72
20
33
30
-13.850000000000001
11
75
21
33
31
-1.1499999999999986
0
LINE
8
RAINBOW_CONTOUR
62
1
10
26
20
34
30
3.6999999999999993
11
30
21
34
31
-9.700000000000001
0
LINE
8
RAINBOW_CONTOUR
62
1
10
71
20
34
30
-13.8
11
75
21
34
31
-1.1999999999999993
0
LINE
8
RAINBOW_CONTOUR
62
1
10
25
20
35
30
3.75
11
26
21
35
31
-9.350000000000001
0
LINE
8
RAINBOW_CONTOUR
62
1
10
80
20
35
30
-14.75
11
81
21
35
31
-1.8500000000000014
0
LINE
8
RAINBOW_CONTOUR
62
1
10
24
20
36
30
3.8000000000000007
11
25
21
36
31
-9.3
0
LINE
8
RAINBOW_CONTOUR
62
1
10
79
20
36
30
-14.7
11
80
21
36
31
-1.8000000000000007
0
LINE
8
RAINBOW_CONTOUR
62
1
10
23
20
37
30
3.8500000000000014
11
25
21
37
31
-9.35
0
LINE
8
RAINBOW_CONTOUR
62
1
10
78
20
37
30
-14.649999999999999
11
80
21
37
31
-1.8500000000000014
0
LINE
8
RAINBOW_CONTOUR
62
1
10
22
20
38
30
3.8999999999999986
11
25
21
38
31
-9.399999999999999
0
LINE
8
RAINBOW_CONTOUR
62
1
10
77
20
38
30
-14.600000000000001
11
80
21
38
31
-1.8999999999999986
0
LINE
8
RAINBOW_CONTOUR
62
1
10
21
20
39
30
3.9499999999999993
11
25
21
39
31
-9.450000000000001
0
LINE
8
RAINBOW_CONTOUR
62
1
10
76
20
39
30
-14.55
11
80
21
39
31
-1.9499999999999993
0
LINE
8
RAINBOW_CONTOUR
62
1
10
25
20
40
30
3.5
11
26
21
40
31
-9.600000000000001
0
LINE
8
RAINBOW_CONTOUR
62
1
10
80
20
40
30
-15
11
81
21
40
31
-2.1000000000000014
0
LINE
8
RAINBOW_CONTOUR
62
1
10
24
20
41
30
3.549999999999999
11
25
21
41
31
-9.55
0
LINE
8
RAINBOW_CONTOUR
62
1
10
79
20
41
30
-14.95
11
80
21
41
31
-2.049999999999997
0
LINE
8
RAINBOW_CONTOUR
62
1
10
23
20
42
30
3.6000000000000014
11
25
21
42
31
-9.6
0
LINE
8
RAINBOW_CONTOUR
62
1
10
78
20
42
30
-14.899999999999999
11
80
21
42
31
-2.1000000000000014
0
LINE
8
RAINBOW_CONTOUR
62
1
10
22
20
43
30
3.6500000000000004
11
25
21
43
31
-9.65
0
LINE
8
RAINBOW_CONTOUR
62
1
10
77
20
43
30
-14.850000000000001
11
80
21
43
31
-2.1499999999999986
0
LINE
8
RAINBOW_CONTOUR
62
1
10
21
20
44
30
3.6999999999999993
11
25
21
44
31
-9.700000000000001
0
LINE
8
RAINBOW_CONTOUR
62
1
10
76
20
44
30
-14.8
11
80
21
44
31
-2.1999999999999993
0
LINE
8
RAINBOW_CONTOUR
62
1
10
25
20
45
30
3.25
11
26
21
45
31
-9.850000000000001
0
LINE
8
RAINBOW_CONTOUR
62
1
10
80
20
45
30
-15.25
11
81
21
45
31
-2.3500000000000014
0
LINE
8
RAINBOW_CONTOUR
62
1
10
24
20
46
30
3.3000000000000007
11
25
21
46
31
-9.8
0
LINE
8
RAINBOW_CONTOUR
62
1
10
79
20
46
30
-15.2
11
80
21
46
31
-2.299999999999997
0
LINE
8
RAINBOW_CONTOUR
62
1
10
23
20
47
30
3.3499999999999996
11
25
21
47
31
-9.85
0
LINE
8
RAINBOW_CONTOUR
62
1
10
78
20
47
30
-15.149999999999999
11
80
21
47
31
-2.3500000000000014
0
LINE
8
RAINBOW_CONTOUR
62
1
10
22
20
48
30
3.4000000000000004
11
25
21
48
31
-9.9
0
LINE
8
RAINBOW_CONTOUR
62
1
10
77
20
48
30
-15.100000000000001
11
80
21
48
31
-2.3999999999999986
0
LINE
8
RAINBOW_CONTOUR
62
1
10
21
20
49
30
3.4499999999999993
11
25
21
49
31
-9.95
0
LINE
8
RAINBOW_CONTOUR
62
1
10
76
20
49
30
-15.05
11
80
21
49
31
-2.450000000000003
0
LINE
8
RAINBOW_CONTOUR
62
1
10
25
20
50
30
3
11
26
21
50
31
-10.1
0
LINE
8
RAINBOW_CONTOUR
62
1
10
80
20
50
30
-15.5
11
81
21
50
31
-2.6000000000000014
0
LINE
8
RAINBOW_CONTOUR
62
1
10
24
20
51
30
3.0500000000000007
11
25
21
51
31
-10.049999999999999
0
LINE
8
RAINBOW_CONTOUR
62
1
10
79
20
51
30
-15.450000000000003
11
80
21
51
31
-2.5500000000000007
0
LINE
8
RAINBOW_CONTOUR
62
1
10
23
20
52
30
3.0999999999999996
11
25
21
52
31
-10.100000000000001
0
LINE
8
RAINBOW_CONTOUR
62
1
10
78
20
52
30
-15.399999999999999
11
80
21
52
31
-2.6000000000000014
0
LINE
8
RAINBOW_CONTOUR
62
1
10
22
20
53
30
3.1500000000000004
11
25
21
53
31
-10.15
0
LINE
8
RAINBOW_CONTOUR
62
1
10
77
20
53
30
-15.350000000000001
11
80
21
53
31
-2.6499999999999986
0
LINE
8
RAINBOW_CONTOUR
62
1
10
21
20
54
30
3.1999999999999993
11
25
21
54
31
-10.200000000000001
0
LINE
8
RAINBOW_CONTOUR
62
1
10
76
20
54
30
-15.3
11
80
21
54
31
-2.700000000000003
0
LINE
8
RAINBOW_CONTOUR
62
1
10
25
20
55
30
2.75
11
26
21
55
31
-10.350000000000001
0
LINE
8
RAINBOW_CONTOUR
62
1
10
80
20
55
30
-15.75
11
81
21
55
31
-2.8500000000000014
0
LINE
8
RAINBOW_CONTOUR
62
1
10
24
20
56
30
2.8000000000000007
11
25
21
56
31
-10.3
0
LINE
8
RAINBOW_CONTOUR
62
1
10
79
20
56
30
-15.7
11
80
21
56
31
-2.8000000000000007
0
LINE
8
RAINBOW_CONTOUR
62
1
10
23
20
57
30
2.8499999999999996
11
25
21
57
31
-10.350000000000001
0
LINE
8
RAINBOW_CONTOUR
62
1
10
78
20
57
30
-15.649999999999999
11
80
21
57
31
-2.8500000000000014
0
LINE
8
RAINBOW_CONTOUR
62
1
10
22
20
58
30
2.8999999999999986
11
25
21
58
31
-10.399999999999999
0
LINE
8
RAINBOW_CONTOUR
62
1
10
77
20
58
30
-15.600000000000001
11
80
21
58
31
-2.8999999999999986
0
LINE
8
RAINBOW_CONTOUR
62
1
10
21
20
59
30
2.9499999999999993
11
25
21
59
31
-10.450000000000001
0
LINE
8
RAINBOW_CONTOUR
62
1
10
76
20
59
30
-15.550000000000004
11
80
21
59
31
-2.950000000000003
0
LINE
8
RAINBOW_CONTOUR
62
1
10
25
20
60
30
2.5
11
26
21
60
31
-10.600000000000001
0
LINE
8
RAINBOW_CONTOUR
62
1
10
80
20
60
30
-16
11
81
21
60
31
-3.1000000000000014
0
LINE
8
RAINBOW_CONTOUR
62
1
10
99
20
60
30
-4.900000000000002
11
100
21
60
31
-5
0
LINE
8
RAINBOW_CONTOUR
62
1
10
100
20
60
30
-5
11
0
21
61
31
4.949999999999999
0
LINE
8
RAINBOW_CONTOUR
62
1
10
24
20
61
30
2.5500000000000007
11
25
21
61
31
-10.55
0
LINE
8
RAINBOW_CONTOUR
62
1
10
79
20
61
30
-15.95
11
80
21
61
31
-3.0500000000000007
0
LINE
8
RAINBOW_CONTOUR
62
1
10
23
20
62
30
2.6000000000000014
11
25
21
62
31
-10.6
0
LINE
8
RAINBOW_CONTOUR
62
1
10
78
20
62
30
-15.899999999999999
11
80
21
62
31
-3.1000000000000014
0
LINE
8
RAINBOW_CONTOUR
62
1
10
22
20
63
30
2.6499999999999986
11
25
21
63
31
-10.649999999999999
0
LINE
8
RAINBOW_CONTOUR
62
1
10
77
20
63
30
-15.850000000000001
11
80
21
63
31
-3.1499999999999986
0
LINE
8
RAINBOW_CONTOUR
62
1
10
21
20
64
30
2.6999999999999993
11
25
21
64
31
-10.700000000000001
0
LINE
8
RAINBOW_CONTOUR
62
1
10
76
20
64
30
-15.8
11
80
21
64
31
-3.1999999999999993
0
LINE
8
RAINBOW_CONTOUR
62
1
10
25
20
65
30
2.25
11
26
21
65
31
-10.850000000000001
0
LINE
8
RAINBOW_CONTOUR
62
1
10
80
20
65
30
-16.25
11
81
21
65
31
-3.3500000000000014
0
LINE
8
RAINBOW_CONTOUR
62
1
10
97
20
65
30
-4.950000000000003
11
98
21
65
31
-5.049999999999997
0
LINE
8
RAINBOW_CONTOUR
62
1
10
100
20
65
30
-5.25
11
0
21
66
31
4.699999999999999
0
LINE
8
RAINBOW_CONTOUR
62
1
10
24
20
66
30
2.299999999999999
11
25
21
66
31
-10.8
0
LINE
8
RAINBOW_CONTOUR
62
1
10
79
20
66
30
-16.2
11
80
21
66
31
-3.299999999999997
0
LINE
8
RAINBOW_CONTOUR
62
1
10
97
20
66
30
-4.9999999999999964
11
98
21
66
31
-5.100000000000001
0
LINE
8
RAINBOW_CONTOUR
62
1
10
99
20
66
30
-5.199999999999999
11
0
21
67
31
4.65
0
LINE
8
RAINBOW_CONTOUR
62
1
10
23
20
67
30
2.3500000000000014
11
25
21
67
31
-10.85
0
LINE
8
RAINBOW_CONTOUR
62
1
10
78
20
67
30
-16.15
11
80
21
67
31
-3.3500000000000014
0
LINE
8
RAINBOW_CONTOUR
62
1
10
96
20
67
30
-4.949999999999999
11
97
21
67
31
-5.050000000000004
0
LINE
8
RAINBOW_CONTOUR
62
1
10
98
20
67
30
-5.149999999999999
11
0
21
68
31
4.6
0
LINE
8
RAINBOW_CONTOUR
62
1
10
22
20
68
30
2.4000000000000004
11
25
21
68
31
-10.9
0
LINE
8
RAINBOW_CONTOUR
62
1
10
77
20
68
30
-16.1
11
80
21
68
31
-3.3999999999999986
0
LINE
8
RAINBOW_CONTOUR
62
1
10
95
20
68
30
-4.899999999999999
11
96
21
68
31
-5
0
LINE
8
RAINBOW_CONTOUR
62
1
10
96
20
68
30
-5
11
97
21
68
31
-5.100000000000001
0
LINE
8
RAINBOW_CONTOUR
62
1
10
97
20
68
30
-5.100000000000001
11
0
21
69
31
4.549999999999999
0
LINE
8
RAINBOW_CONTOUR
62
1
10
21
20
69
30
2.4499999999999993
11
25
21
69
31
-10.950000000000001
0
LINE
8
RAINBOW_CONTOUR
62
1
10
76
20
69
30
-16.05
11
80
21
69
31
-3.4499999999999993
0
LINE
8
RAINBOW_CONTOUR
62
1
10
95
20
69
30
-4.950000000000003
11
96
21
69
31
-5.050000000000004
0
LINE
8
RAINBOW_CONTOUR
62
1
10
96
20
69
30
-5.050000000000004
11
0
21
70
31
4.5
0
LINE
8
RAINBOW_CONTOUR
62
1
10
30
20
70
30
1.5
11
31
21
70
31
-11.600000000000001
0
LINE
8
RAINBOW_CONTOUR
62
1
10
75
20
70
30
-16
11
76
21
70
31
-3.1000000000000014
0
LINE
8
RAINBOW_CONTOUR
62
1
10
94
20
70
30
-4.900000000000002
11
95
21
70
31
-5
0
LINE
8
RAINBOW_CONTOUR
62
1
10
95
20
70
30
-5
11
96
21
70
31
-5.100000000000001
0
LINE
8
RAINBOW_CONTOUR
62
1
10
100
20
70
30
-5.5
11
0
21
71
31
4.449999999999999
0
LINE
8
RAINBOW_CONTOUR
62
1
10
29
20
71
30
1.5500000000000007
11
30
21
71
31
-11.55
0
LINE
8
RAINBOW_CONTOUR
62
1
10
74
20
71
30
-15.95
11
75
21
71
31
-3.0500000000000007
0
LINE
8
RAINBOW_CONTOUR
62
1
10
94
20
71
30
-4.950000000000003
11
95
21
71
31
-5.050000000000001
0
LINE
8
RAINBOW_CONTOUR
62
1
10
99
20
71
30
-5.449999999999999
11
0
21
72
31
4.4
0
LINE
8
RAINBOW_CONTOUR
62
1
10
28
20
72
30
1.6000000000000014
11
30
21
72
31
-11.600000000000001
0
LINE
8
RAINBOW_CONTOUR
62
1
10
73
20
72
30
-15.899999999999999
11
75
21
72
31
-3.1000000000000014
0
LINE
8
RAINBOW_CONTOUR
62
1
10
93
20
72
30
-4.899999999999999
11
95
21
72
31
-5.100000000000001
0
LINE
8
RAINBOW_CONTOUR
62
1
10
98
20
72
30
-5.399999999999999
11
0
21
73
31
4.35
0
LINE
8
RAINBOW_CONTOUR
62
1
10
27
20
73
30
1.6499999999999986
11
30
21
73
31
-11.649999999999999
0
LINE
8
RAINBOW_CONTOUR
62
1
10
72
20
73
30
-15.850000000000001
11
75
21
73
31
-3.1499999999999986
0
LINE
8
RAINBOW_CONTOUR
62
1
10
92
20
73
30
-4.850000000000001
11
95
21
73
31
-5.149999999999999
0
LINE
8
RAINBOW_CONTOUR
62
1
10
97
20
73
30
-5.350000000000001
11
0
21
74
31
4.300000000000001
0
LINE
8
RAINBOW_CONTOUR
62
1
10
26
20
74
30
1.6999999999999993
11
30
21
74
31
-11.7
0
LINE
8
RAINBOW_CONTOUR
62
1
10
71
20
74
30
-15.8
11
75
21
74
31
-3.1999999999999993
0
LINE
8
RAINBOW_CONTOUR
62
1
10
91
20
74
30
-4.800000000000001
11
95
21
74
31
-5.200000000000003
0
LINE
8
RAINBOW_CONTOUR
62
1
10
96
20
74
30
-5.300000000000001
11
0
21
75
31
4.25
0
LINE
8
RAINBOW_CONTOUR
62
1
10
35
20
75
30
0.75
11
36
21
75
31
-12.350000000000001
0
LINE
8
RAINBOW_CONTOUR
62
1
10
70
20
75
30
-15.75
11
71
21
75
31
-2.8500000000000014
0
LINE
8
RAINBOW_CONTOUR
62
1
10
92
20
75
30
-4.950000000000003
11
93
21
75
31
-5.049999999999997
0
LINE
8
RAINBOW_CONTOUR
62
1
10
100
20
75
30
-5.75
11
0
21
76
31
4.200000000000001
0
LINE
8
RAINBOW_CONTOUR
62
1
10
34
20
76
30
0.8000000000000007
11
35
21
76
31
-12.3
0
LINE
8
RAINBOW_CONTOUR
62
1
10
69
20
76
30
-15.7
11
70
21
76
31
-2.8000000000000007
0
LINE
8
RAINBOW_CONTOUR
62
1
10
92
20
76
30
-4.9999999999999964
11
93
21
76
31
-5.100000000000001
0
LINE
8
RAINBOW_CONTOUR
62
1
10
99
20
76
30
-5.699999999999999
11
0
21
77
31
4.149999999999999
0
LINE
8
RAINBOW_CONTOUR
62
1
10
33
20
77
30
0.8500000000000014
11
35
21
77
31
-12.350000000000001
0
LINE
8
RAINBOW_CONTOUR
62
1
10
68
20
77
30
-15.649999999999999
11
70
21
77
31
-2.8500000000000014
0
LINE
8
RAINBOW_CONTOUR
62
1
10
91
20
77
30
-4.949999999999999
11
92
21
77
31
-5.050000000000004
0
LINE
8
RAINBOW_CONTOUR
62
1
10
98
20
77
30
-5.649999999999999
11
0
21
78
31
4.1
0
LINE
8
RAINBOW_CONTOUR
62
1
10
32
20
78
30
0.8999999999999986
11
35
21
78
31
-12.399999999999999
0
LINE
8
RAINBOW_CONTOUR
62
1
10
67
20
78
30
-15.600000000000001
11
70
21
78
31
-2.8999999999999986
0
LINE
8
RAINBOW_CONTOUR
62
1
10
90
20
78
30
-4.899999999999999
11
91
21
78
31
-5
0
LINE
8
RAINBOW_CONTOUR
62
1
10
91
20
78
30
-5
11
92
21
78
31
-5.100000000000001
0
LINE
8
RAINBOW_CONTOUR
62
1
10
97
20
78
30
-5.600000000000001
11
0
21
79
31
4.049999999999999
0
LINE
8
RAINBOW_CONTOUR
62
1
10
31
20
79
30
0.9499999999999993
11
35
21
79
31
-12.45
0
LINE
8
RAINBOW_CONTOUR
62
1
10
66
20
79
30
-15.550000000000004
11
70
21
79
31
-2.950000000000003
0
LINE
8
RAINBOW_CONTOUR
62
1
10
90
20
79
30
-4.950000000000003
11
91
21
79
31
-5.050000000000004
0
LINE
8
RAINBOW_CONTOUR
62
1
10
96
20
79
30
-5.550000000000001
11
0
21
80
31
4
0
LINE
8
RAINBOW_CONTOUR
62
1
10
89
20
80
30
-4.900000000000002
11
90
21
80
31
-5
0
LINE
8
RAINBOW_CONTOUR
62
1
10
90
20
80
30
-5
11
91
21
80
31
-5.100000000000001
0
LINE
8
RAINBOW_CONTOUR
62
1
10
100
20
80
30
-6
11
0
21
81
31
3.9499999999999993
0
LINE
8
RAINBOW_CONTOUR
62
1
10
89
20
81
30
-4.950000000000003
11
90
21
81
31
-5.050000000000001
0
LINE
8
RAINBOW_CONTOUR
62
1
10
99
20
81
30
-5.950000000000003
11
0
21
82
31
3.8999999999999986
0
LINE
8
RAINBOW_CONTOUR
62
1
10
88
20
82
30
-4.899999999999999
11
90
21
82
31
-5.100000000000001
0
LINE
8
RAINBOW_CONTOUR
62
1
10
98
20
82
30
-5.899999999999999
11
0
21
83
31
3.8500000000000014
0
LINE
8
RAINBOW_CONTOUR
62
1
10
87
20
83
30
-4.850000000000001
11
90
21
83
31
-5.149999999999999
0
LINE
8
RAINBOW_CONTOUR
62
1
10
97
20
83
30
-5.850000000000001
11
0
21
84
31
3.799999999999999
0
LINE
8
RAINBOW_CONTOUR
62
1
10
86
20
84
30
-4.800000000000001
11
90
21
84
31
-5.200000000000003
0
LINE
8
RAINBOW_CONTOUR
62
1
10
96
20
84
30
-5.800000000000001
11
0
21
85
31
3.75
0
LINE
8
RAINBOW_CONTOUR
62
1
10
87
20
85
30
-4.950000000000003
11
88
21
85
31
-5.049999999999997
0
LINE
8
RAINBOW_CONTOUR
62
1
10
100
20
85
30
-6.25
11
0
21
86
31
3.6999999999999993
0
LINE
8
RAINBOW_CONTOUR
62
1
10
87
20
86
30
-4.9999999999999964
11
88
21
86
31
-5.100000000000001
0
LINE
8
RAINBOW_CONTOUR
62
1
10
99
20
86
30
-6.200000000000003
11
0
21
87
31
3.6500000000000004
0
LINE
8
RAINBOW_CONTOUR
62
1
10
86
20
87
30
-4.949999999999999
11
87
21
87
31
-5.050000000000004
0
LINE
8
RAINBOW_CONTOUR
62
1
10
98
20
87
30
-6.149999999999999
11
0
21
88
31
3.6000000000000014
0
LINE
8
RAINBOW_CONTOUR
62
1
10
85
20
88
30
-4.899999999999999
11
86
21
88
31
-5
0
LINE
8
RAINBOW_CONTOUR
62
1
10
86
20
88
30
-5
11
87
21
88
31
-5.100000000000001
0
LINE
8
RAINBOW_CONTOUR
62
1
10
97
20
88
30
-6.100000000000001
11
0
21
89
31
3.549999999999999
0
LINE
8
RAINBOW_CONTOUR
62
1
10
85
20
89
30
-4.950000000000003
11
86
21
89
31
-5.050000000000004
0
LINE
8
RAINBOW_CONTOUR
62
1
10
96
20
89
30
-6.050000000000004
11
0
21
90
31
3.5
0
LINE
8
RAINBOW_CONTOUR
62
1
10
84
20
90
30
-4.900000000000002
11
85
21
90
31
-5
0
LINE
8
RAINBOW_CONTOUR
62
1
10
85
20
90
30
-5
11
86
21
90
31
-5.100000000000001
0
LINE
8
RAINBOW_CONTOUR
62
1
10
100
20
90
30
-6.5
11
0
21
91
31
3.4499999999999993
0
LINE
8
RAINBOW_CONTOUR
62
1
10
84
20
91
30
-4.950000000000003
11
85
21
91
31
-5.050000000000001
0
LINE
8
RAINBOW_CONTOUR
62
1
10
99
20
91
30
-6.449999999999999
11
0
21
92
31
3.4000000000000004
0
LINE
8
RAINBOW_CONTOUR
62
1
10
83
20
92
30
-4.899999999999999
11
85
21
92
31
-5.100000000000001
0
LINE
8
RAINBOW_CONTOUR
62
1
10
98
20
92
30
-6.399999999999999
11
0
21
93
31
3.3499999999999996
0
LINE
8
RAINBOW_CONTOUR
62
1
10
82
20
93
30
-4.850000000000001
11
85
21
93
31
-5.149999999999999
0
LINE
8
RAINBOW_CONTOUR
62
1
10
97
20
93
30
-6.350000000000001
11
0
21
94
31
3.299999999999999
0
LINE
8
RAINBOW_CONTOUR
62
1
10
81
20
94
30
-4.800000000000001
11
85
21
94
31
-5.200000000000003
0
LINE
8
RAINBOW_CONTOUR
62
1
10
96
20
94
30
-6.300000000000004
11
0
21
95
31
3.25
0
LINE
8
RAINBOW_CONTOUR
62
1
10
82
20
95
30
-4.950000000000003
11
83
21
95
31
-5.049999999999997
0
LINE
8
RAINBOW_CONTOUR
62
1
10
100
20
95
30
-6.75
11
0
21
96
31
3.1999999999999993
0
LINE
8
RAINBOW_CONTOUR
62
1
10
82
20
96
30
-4.9999999999999964
11
83
21
96
31
-5.100000000000001
0
LINE
8
RAINBOW_CONTOUR
62
1
10
99
20
96
30
-6.699999999999999
11
0
21
97
31
3.1500000000000004
0
LINE
8
RAINBOW_CONTOUR
62
1
10
81
20
97
30
-4.949999999999999
11
82
21
97
31
-5.050000000000004
0
LINE
8
RAINBOW_CONTOUR
62
1
10
98
20
97
30
-6.649999999999999
11
0
21
98
31
3.0999999999999996
0
LINE
8
RAINBOW_CONTOUR
62
1
10
80
20
98
30
-4.899999999999999
11
81
21
98
31
-5
0
LINE
8
RAINBOW_CONTOUR
62
1
10
81
20
98
30
-5
11
82
21
98
31
-5.100000000000001
0
LINE
8
RAINBOW_CONTOUR
62
1
10
97
20
98
30
-6.600000000000001
11
0
21
99
31
3.0500000000000007
0
LINE
8
RAINBOW_CONTOUR
62
1
10
80
20
99
30
-4.950000000000003
11
81
21
99
31
-5.050000000000004
0
LINE
8
RAINBOW_CONTOUR
62
1
10
96
20
99
30
-6.550000000000001
11
0
21
100
31
3
0
LINE
8
RAINBOW_CONTOUR
62
1
10
75
20
100
30
-4.5
11
80
21
100
31
-5
0
LINE
8
RAINBOW_CONTOUR
62
1
10
80
20
100
30
-5
11
85
21
100
31
-5.5
0
LINE
8
RAINBOW_CONTOUR
62
1
10
99
20
10
30
-2.400000000000002
11
100
21
10
31
-2.5
0
LINE
8
RAINBOW_CONTOUR
62
1
10
100
20
10
30
-2.5
11
0
21
11
31
7.449999999999999
0
LINE
8
RAINBOW_CONTOUR
62
1
10
97
20
15
30
-2.450000000000003
11
98
21
15
31
-2.549999999999997
0
LINE
8
RAINBOW_CONTOUR
62
1
10
100
20
15
30
-2.75
11
0
21
16
31
7.200000000000001
0
LINE
8
RAINBOW_CONTOUR
62
1
10
97
20
16
30
-2.4999999999999964
11
98
21
16
31
-2.6000000000000014
0
LINE
8
RAINBOW_CONTOUR
62
1
10
99
20
16
30
-2.6999999999999993
11
0
21
17
31
7.149999999999999
0
LINE
8
RAINBOW_CONTOUR
62
1
10
96
20
17
30
-2.4499999999999993
11
97
21
17
31
-2.5500000000000043
0
LINE
8
RAINBOW_CONTOUR
62
1
10
98
20
17
30
-2.6499999999999986
11
0
21
18
31
7.100000000000001
0
LINE
8
RAINBOW_CONTOUR
62
1
10
95
20
18
30
-2.3999999999999986
11
96
21
18
31
-2.5
0
LINE
8
RAINBOW_CONTOUR
62
1
10
96
20
18
30
-2.5
11
97
21
18
31
-2.6000000000000014
0
LINE
8
RAINBOW_CONTOUR
62
1
10
97
20
18
30
-2.6000000000000014
11
0
21
19
31
7.049999999999999
0
LINE
8
RAINBOW_CONTOUR
62
1
10
95
20
19
30
-2.450000000000003
11
96
21
19
31
-2.5500000000000043
0
LINE
8
RAINBOW_CONTOUR
62
1
10
96
20
19
30
-2.5500000000000043
11
0
21
20
31
7
0
LINE
8
RAINBOW_CONTOUR
62
1
10
94
20
20
30
-2.400000000000002
11
95
21
20
31
-2.5
0
LINE
8
RAINBOW_CONTOUR
62
1
10
95
20
20
30
-2.5
11
96
21
20
31
-2.6000000000000014
0
LINE
8
RAINBOW_CONTOUR
62
1
10
100
20
20
30
-3
11
0
21
21
31
6.949999999999999
0
LINE
8
RAINBOW_CONTOUR
62
1
10
94
20
21
30
-2.450000000000003
11
95
21
21
31
-2.5500000000000007
0
LINE
8
RAINBOW_CONTOUR
62
1
10
99
20
21
30
-2.9499999999999993
11
0
21
22
31
6.9
0
LINE
8
RAINBOW_CONTOUR
62
1
10
93
20
22
30
-2.3999999999999986
11
95
21
22
31
-2.6000000000000014
0
LINE
8
RAINBOW_CONTOUR
62
1
10
98
20
22
30
-2.8999999999999986
11
0
21
23
31
6.85
0
LINE
8
RAINBOW_CONTOUR
62
1
10
92
20
23
30
-2.3500000000000014
11
95
21
23
31
-2.6499999999999986
0
LINE
8
RAINBOW_CONTOUR
62
1
10
97
20
23
30
-2.8500000000000014
11
0
21
24
31
6.800000000000001
0
LINE
8
RAINBOW_CONTOUR
62
1
10
91
20
24
30
-2.3000000000000007
11
95
21
24
31
-2.700000000000003
0
LINE
8
RAINBOW_CONTOUR
62
1
10
96
20
24
30
-2.8000000000000007
11
0
21
25
31
6.75
0
LINE
8
RAINBOW_CONTOUR
62
1
10
35
20
25
30
3.25
11
36
21
25
31
-9.850000000000001
0
LINE
8
RAINBOW_CONTOUR
62
1
10
70
20
25
30
-13.25
11
71
21
25
31
-0.3500000000000014
0
LINE
8
RAINBOW_CONTOUR
62
1
10
92
20
25
30
-2.450000000000003
11
93
21
25
31
-2.549999999999997
0
LINE
8
RAINBOW_CONTOUR
62
1
10
100
20
25
30
-3.25
11
0
21
26
31
6.700000000000001
0
LINE
8
RAINBOW_CONTOUR
62
1
10
34
20
26
30
3.3000000000000007
11
35
21
26
31
-9.8
0
LINE
8
RAINBOW_CONTOUR
62
1
10
69
20
26
30
-13.2
11
70
21
26
31
-0.3000000000000007
0
LINE
8
RAINBOW_CONTOUR
62
1
10
92
20
26
30
-2.4999999999999964
11
93
21
26
31
-2.6000000000000014
0
LINE
8
RAINBOW_CONTOUR
62
1
10
99
20
26
30
-3.1999999999999993
11
0
21
27
31
6.649999999999999
0
LINE
8
RAINBOW_CONTOUR
62
1
10
33
20
27
30
3.3499999999999996
11
35
21
27
31
-9.85
0
LINE
8
RAINBOW_CONTOUR
62
1
10
68
20
27
30
-13.149999999999999
11
70
21
27
31
-0.3500000000000014
0
LINE
8
RAINBOW_CONTOUR
62
1
10
91
20
27
30
-2.4499999999999993
11
92
21
27
31
-2.5500000000000043
0
LINE
8
RAINBOW_CONTOUR
62
1
10
98
20
27
30
-3.1499999999999986
11
0
21
28
31
6.600000000000001
0
LINE
8
RAINBOW_CONTOUR
62
1
10
32
20
28
30
3.4000000000000004
11
35
21
28
31
-9.9
0
LINE
8
RAINBOW_CONTOUR
62
1
10
67
20
28
30
-13.100000000000001
11
70
21
28
31
-0.3999999999999986
0
LINE
8
RAINBOW_CONTOUR
62
1
10
90
20
28
30
-2.3999999999999986
11
91
21
28
31
-2.5
0
LINE
8
RAINBOW_CONTOUR
62
1
10
91
20
28
30
-2.5
11
92
21
28
31
-2.6000000000000014
0
LINE
8
RAINBOW_CONTOUR
62
1
10
97
20
28
30
-3.1000000000000014
11
0
21
29
31
6.549999999999999
0
LINE
8
RAINBOW_CONTOUR
62
1
10
31
20
29
30
3.4499999999999993
11
35
21
29
31
-9.95
0
LINE
8
RAINBOW_CONTOUR
62
1
10
66
20
29
30
-13.05
11
70
21
29
31
-0.45000000000000284
0
LINE
8
RAINBOW_CONTOUR
62
1
10
90
20
29
30
-2.450000000000003
11
91
21
29
31
-2.5500000000000043
0
LINE
8
RAINBOW_CONTOUR
62
1
10
96
20
29
30
-3.0500000000000007
11
0
21
30
31
6.5
0
LINE
8
RAINBOW_CONTOUR
62
1
10
30
20
30
30
3.5
11
31
21
30
31
-9.600000000000001
0
LINE
8
RAINBOW_CONTOUR
62
1
10
75
20
30
30
-14
11
76
21
30
31
-1.1000000000000014
0
LINE
8
RAINBOW_CONTOUR
62
1
10
89
20
30
30
-2.400000000000002
11
90
21
30
31
-2.5
0
LINE
8
RAINBOW_CONTOUR
62
1
10
90
20
30
30
-2.5
11
91
21
30
31
-2.6000000000000014
0
LINE
8
RAINBOW_CONTOUR
62
1
10
100
20
30
30
-3.5
11
0
21
31
31
6.449999999999999
0
LINE
8
RAINBOW_CONTOUR
62
1
10
29
20
31
30
3.549999999999999
11
30
21
31
31
-9.55
0
LINE
8
RAINBOW_CONTOUR
62
1
10
74
20
31
30
-13.95
11
75
21
31
31
-1.0500000000000007
0
LINE
8
RAINBOW_CONTOUR
62
1
10
89
20
31
30
-2.450000000000003
11
90
21
31
31
-2.5500000000000007
0
LINE
8
RAINBOW_CONTOUR
62
1
10
99
20
31
30
-3.4499999999999993
11
0
21
32
31
6.4
0
LINE
8
RAINBOW_CONTOUR
62
1
10
28
20
32
30
3.6000000000000014
11
30
21
32
31
-9.6
0
LINE
8
RAINBOW_CONTOUR
62
1
10
73
20
32
30
-13.899999999999999
11
75
21
32
31
-1.1000000000000014
0
LINE
8
RAINBOW_CONTOUR
62
1
10
88
20
32
30
-2.3999999999999986
11
90
21
32
31
-2.6000000000000014
0
LINE
8
RAINBOW_CONTOUR
62
1
10
98
20
32
30
-3.3999999999999986
11
0
21
33
31
6.35
0
LINE
8
RAINBOW_CONTOUR
62
1
10
27
20
33
30
3.6500000000000004
11
30
21
33
31
-9.65
0
LINE
8
RAINBOW_CONTOUR
62
1
10
72
20
33
30
-13.850000000000001
11
75
21
33
31
-1.1499999999999986
0
LINE
8
RAINBOW_CONTOUR
62
1
10
87
20
33
30
-2.3500000000000014
11
90
21
33
31
-2.6499999999999986
0
LINE
8
RAINBOW_CONTOUR
62
1
10
97
20
33
30
-3.3500000000000014
11
0
21
34
31
6.299999999999999
0
LINE
8
RAINBOW_CONTOUR
62
1
10
26
20
34
30
3.6999999999999993
11
30
21
34
31
-9.700000000000001
0
LINE
8
RAINBOW_CONTOUR
62
1
10
71
20
34
30
-13.8
11
75
21
34
31
-1.1999999999999993
0
LINE
8
RAINBOW_CONTOUR
62
1
10
86
20
34
30
-2.3000000000000007
11
90
21
34
31
-2.700000000000003
0
LINE
8
RAINBOW_CONTOUR
62
1
10
96
20
34
30
-3.3000000000000007
11
0
21
35
31
6.25
0
LINE
8
RAINBOW_CONTOUR
62
1
10
25
20
35
30
3.75
11
26
21
35
31
-9.350000000000001
0
LINE
8
RAINBOW_CONTOUR
62
1
10
80
20
35
30
-14.75
11
81
21
35
31
-1.8500000000000014
0
LINE
8
RAINBOW_CONTOUR
62
1
10
87
20
35
30
-2.450000000000003
11
88
21
35
31
-2.549999999999997
0
LINE
8
RAINBOW_CONTOUR
62
1
10
100
20
35
30
-3.75
11
0
21
36
31
6.199999999999999
0
LINE
8
RAINBOW_CONTOUR
62
1
10
24
20
36
30
3.8000000000000007
11
25
21
36
31
-9.3
0
LINE
8
RAINBOW_CONTOUR
62
1
10
79
20
36
30
-14.7
11
80
21
36
31
-1.8000000000000007
0
LINE
8
RAINBOW_CONTOUR
62
1
10
87
20
36
30
-2.4999999999999964
11
88
21
36
31
-2.6000000000000014
0
LINE
8
RAINBOW_CONTOUR
62
1
10
99
20
36
30
-3.700000000000003
11
0
21
37
31
6.149999999999999
0
LINE
8
RAINBOW_CONTOUR
62
1
10
23
20
37
30
3.8500000000000014
11
25
21
37
31
-9.35
0
LINE
8
RAINBOW_CONTOUR
62
1
10
78
20
37
30
-14.649999999999999
11
80
21
37
31
-1.8500000000000014
0
LINE
8
RAINBOW_CONTOUR
62
1
10
86
20
37
30
-2.4499999999999993
11
87
21
37
31
-2.5500000000000043
0
LINE
8
RAINBOW_CONTOUR
62
1
10
98
20
37
30
-3.6499999999999986
11
0
21
38
31
6.100000000000001
0
LINE
8
RAINBOW_CONTOUR
62
1
10
22
20
38
30
3.8999999999999986
11
25
21
38
31
-9.399999999999999
0
LINE
8
RAINBOW_CONTOUR
62
1
10
77
20
38
30
-14.600000000000001
11
80
21
38
31
-1.8999999999999986
0
LINE
8
RAINBOW_CONTOUR
62
1
10
85
20
38
30
-2.3999999999999986
11
86
21
38
31
-2.5
0
LINE
8
RAINBOW_CONTOUR
62
1
10
86
20
38
30
-2.5
11
87
21
38
31
-2.6000000000000014
0
LINE
8
RAINBOW_CONTOUR
62
1
10
97
20
38
30
-3.6000000000000014
11
0
21
39
31
6.049999999999999
0
LINE
8
RAINBOW_CONTOUR
62
1
10
21
20
39
30
3.9499999999999993
11
25
21
39
31
-9.450000000000001
0
LINE
8
RAINBOW_CONTOUR
62
1
10
76
20
39
30
-14.55
11
80
21
39
31
-1.9499999999999993
0
LINE
8
RAINBOW_CONTOUR
62
1
10
85
20
39
30
-2.450000000000003
11
86
21
39
31
-2.5500000000000043
0
LINE
8
RAINBOW_CONTOUR
62
1
10
96
20
39
30
-3.5500000000000007
11
0
21
40
31
6
0
LINE
8
RAINBOW_CONTOUR
62
1
10
25
20
40
30
3.5
11
26
21
40
31
-9.600000000000001
0
LINE
8
RAINBOW_CONTOUR
62
1
10
80
20
40
30
-15
11
81
21
40
31
-2.1000000000000014
0
LINE
8
RAINBOW_CONTOUR
62
1
10
84
20
40
30
-2.400000000000002
11
85
21
40
31
-2.5
0
LINE
8
RAINBOW_CONTOUR
62
1
10
85
20
40
30
-2.5
11
86
21
40
31
-2.6000000000000014
0
LINE
8
RAINBOW_CONTOUR
62
1
10
100
20
40
30
-4
11
0
21
41
31
5.949999999999999
0
LINE
8
RAINBOW_CONTOUR
62
1
10
24
20
41
30
3.549999999999999
11
25
21
41
31
-9.55
0
LINE
8
RAINBOW_CONTOUR
62
1
10
79
20
41
30
-14.95
11
80
21
41
31
-2.049999999999997
0
LINE
8
RAINBOW_CONTOUR
62
1
10
84
20
41
30
-2.450000000000003
11
85
21
41
31
-2.5500000000000007
0
LINE
8
RAINBOW_CONTOUR
62
1
10
99
20
41
30
-3.9499999999999993
11
0
21
42
31
5.9
0
LINE
8
RAINBOW_CONTOUR
62
1
10
23
20
42
30
3.6000000000000014
11
25
21
42
31
-9.6
0
LINE
8
RAINBOW_CONTOUR
62
1
10
78
20
42
30
-14.899999999999999
11
80
21
42
31
-2.1000000000000014
0
LINE
8
RAINBOW_CONTOUR
62
1
10
83
20
42
30
-2.3999999999999986
11
85
21
42
31
-2.6000000000000014
0
LINE
8
RAINBOW_CONTOUR
62
1
10
98
20
42
30
-3.8999999999999986
11
0
21
43
31
5.85
0
LINE
8
RAINBOW_CONTOUR
62
1
10
22
20
43
30
3.6500000000000004
11
25
21
43
31
-9.65
0
LINE
8
RAINBOW_CONTOUR
62
1
10
77
20
43
30
-14.850000000000001
11
80
21
43
31
-2.1499999999999986
0
LINE
8
RAINBOW_CONTOUR
62
1
10
82
20
43
30
-2.3500000000000014
11
85
21
43
31
-2.6499999999999986
0
LINE
8
RAINBOW_CONTOUR
62
1
10
97
20
43
30
-3.8500000000000014
11
0
21
44
31
5.799999999999999
0
LINE
8
RAINBOW_CONTOUR
62
1
10
21
20
44
30
3.6999999999999993
11
25
21
44
31
-9.700000000000001
0
LINE
8
RAINBOW_CONTOUR
62
1
10
76
20
44
30
-14.8
11
80
21
44
31
-2.1999999999999993
0
LINE
8
RAINBOW_CONTOUR
62
1
10
81
20
44
30
-2.3000000000000007
11
85
21
44
31
-2.700000000000003
0
LINE
8
RAINBOW_CONTOUR
62
1
10
96
20
44
30
-3.8000000000000043
11
0
21
45
31
5.75
0
LINE
8
RAINBOW_CONTOUR
62
1
10
25
20
45
30
3.25
11
26
21
45
31
-9.850000000000001
0
LINE
8
RAINBOW_CONTOUR
62
1
10
80
20
45
30
-15.25
11
81
21
45
31
-2.3500000000000014
0
LINE
8
RAINBOW_CONTOUR
62
1
10
82
20
45
30
-2.450000000000003
11
83
21
45
31
-2.549999999999997
0
LINE
8
RAINBOW_CONTOUR
62
1
10
100
20
45
30
-4.25
11
0
21
46
31
5.699999999999999
0
LINE
8
RAINBOW_CONTOUR
62
1
10
24
20
46
30
3.3000000000000007
11
25
21
46
31
-9.8
0
LINE
8
RAINBOW_CONTOUR
62
1
10
79
20
46
30
-15.2
11
80
21
46
31
-2.299999999999997
0
LINE
8
RAINBOW_CONTOUR
62
1
10
82
20
46
30
-2.4999999999999964
11
83
21
46
31
-2.6000000000000014
0
LINE
8
RAINBOW_CONTOUR
62
1
10
99
20
46
30
-4.199999999999999
11
0
21
47
31
5.65
0
LINE
8
RAINBOW_CONTOUR
62
1
10
23
20
47
30
3.3499999999999996
11
25
21
47
31
-9.85
0
LINE
8
RAINBOW_CONTOUR
62
1
10
78
20
47
30
-15.149999999999999
11
80
21
47
31
-2.3500000000000014
0
LINE
8
RAINBOW_CONTOUR
62
1
10
81
20
47
30
-2.4499999999999993
11
82
21
47
31
-2.5500000000000043
0
LINE
8
RAINBOW_CONTOUR
62
1
10
98
20
47
30
-4.149999999999999
11
0
21
48
31
5.6
0
LINE
8
RAINBOW_CONTOUR
62
1
10
22
20
48
30
3.4000000000000004
11
25
21
48
31
-9.9
0
LINE
8
RAINBOW_CONTOUR
62
1
10
77
20
48
30
-15.100000000000001
11
80
21
48
31
-2.3999999999999986
0
LINE
8
RAINBOW_CONTOUR
62
1
10
80
20
48
30
-2.3999999999999986
11
81
21
48
31
-2.5
0
LINE
8
RAINBOW_CONTOUR
62
1
10
81
20
48
30
-2.5
11
82
21
48
31
-2.6000000000000014
0
LINE
8
RAINBOW_CONTOUR
62
1
10
97
20
48
30
-4.100000000000001
11
0
21
49
31
5.550000000000001
0
LINE
8
RAINBOW_CONTOUR
62
1
10
21
20
49
30
3.4499999999999993
11
25
21
49
31
-9.95
0
LINE
8
RAINBOW_CONTOUR
62
1
10
76
20
49
30
-15.05
11
80
21
49
31
-2.450000000000003
0
LINE
8
RAINBOW_CONTOUR
62
1
10
80
20
49
30
-2.450000000000003
11
81
21
49
31
-2.5500000000000043
0
LINE
8
RAINBOW_CONTOUR
62
1
10
96
20
49
30
-4.050000000000001
11
0
21
50
31
5.5
0
LINE
8
RAINBOW_CONTOUR
62
1
10
25
20
50
30
3
11
26
21
50
31
-10.1
0
LINE
8
RAINBOW_CONTOUR
62
1
10
100
20
50
30
-4.5
11
0
21
51
31
5.450000000000001
0
LINE
8
RAINBOW_CONTOUR
62
1
10
24
20
51
30
3.0500000000000007
11
25
21
51
31
-10.049999999999999
0
LINE
8
RAINBOW_CONTOUR
62
1
10
99
20
51
30
-4.449999999999999
11
0
21
52
31
5.399999999999999
0
LINE
8
RAINBOW_CONTOUR
62
1
10
23
20
52
30
3.0999999999999996
11
25
21
52
31
-10.100000000000001
0
LINE
8
RAINBOW_CONTOUR
62
1
10
98
20
52
30
-4.399999999999999
11
0
21
53
31
5.350000000000001
0
LINE
8
RAINBOW_CONTOUR
62
1
10
22
20
53
30
3.1500000000000004
11
25
21
53
31
-10.15
0
LINE
8
RAINBOW_CONTOUR
62
1
10
97
20
53
30
-4.350000000000001
11
0
21
54
31
5.299999999999999
0
LINE
8
RAINBOW_CONTOUR
62
1
10
21
20
54
30
3.1999999999999993
11
25
21
54
31
-10.200000000000001
0
LINE
8
RAINBOW_CONTOUR
62
1
10
96
20
54
30
-4.300000000000001
11
0
21
55
31
5.25
0
LINE
8
RAINBOW_CONTOUR
62
1
10
25
20
55
30
2.75
11
26
21
55
31
-10.350000000000001
0
LINE
8
RAINBOW_CONTOUR
62
1
10
100
20
55
30
-4.75
11
0
21
56
31
5.199999999999999
0
LINE
8
RAINBOW_CONTOUR
62
1
10
24
20
56
30
2.8000000000000007
11
25
21
56
31
-10.3
0
LINE
8
RAINBOW_CONTOUR
62
1
10
99
20
56
30
-4.699999999999999
11
0
21
57
31
5.15
0
LINE
8
RAINBOW_CONTOUR
62
1
10
23
20
57
30
2.8499999999999996
11
25
21
57
31
-10.350000000000001
0
LINE
8
RAINBOW_CONTOUR
62
1
10
98
20
57
30
-4.649999999999999
11
0
21
58
31
5.1
0
LINE
8
RAINBOW_CONTOUR
62
1
10
22
20
58
30
2.8999999999999986
11
25
21
58
31
-10.399999999999999
0
LINE
8
RAINBOW_CONTOUR
62
1
10
97
20
58
30
-4.600000000000001
11
0
21
59
31
5.049999999999999
0
LINE
8
RAINBOW_CONTOUR
62
1
10
21
20
59
30
2.9499999999999993
11
25
21
59
31
-10.450000000000001
0
LINE
8
RAINBOW_CONTOUR
62
1
10
96
20
59
30
-4.550000000000001
11
0
21
60
31
5
0
LINE
8
RAINBOW_CONTOUR
62
1
10
25
20
60
30
2.5
11
26
21
60
31
-10.600000000000001
0
LINE
8
RAINBOW_CONTOUR
62
1
10
100
20
60
30
-5
11
0
21
61
31
4.949999999999999
0
LINE
8
RAINBOW_CONTOUR
62
1
10
24
20
61
30
2.5500000000000007
11
25
21
61
31
-10.55
0
LINE
8
RAINBOW_CONTOUR
62
1
10
99
20
61
30
-4.950000000000003
11
0
21
62
31
4.899999999999999
0
LINE
8
RAINBOW_CONTOUR
62
1
10
23
20
62
30
2.6000000000000014
11
25
21
62
31
-10.6
0
LINE
8
RAINBOW_CONTOUR
62
1
10
98
20
62
30
-4.899999999999999
11
0
21
63
31
4.850000000000001
0
LINE
8
RAINBOW_CONTOUR
62
1
10
22
20
63
30
2.6499999999999986
11
25
21
63
31
-10.649999999999999
0
LINE
8
RAINBOW_CONTOUR
62
1
10
97
20
63
30
-4.850000000000001
11
0
21
64
31
4.799999999999999
0
LINE
8
RAINBOW_CONTOUR
62
1
10
21
20
64
30
2.6999999999999993
11
25
21
64
31
-10.700000000000001
0
LINE
8
RAINBOW_CONTOUR
62
1
10
96
20
64
30
-4.800000000000001
11
0
21
65
31
4.75
0
LINE
8
RAINBOW_CONTOUR
62
1
10
25
20
65
30
2.25
11
26
21
65
31
-10.850000000000001
0
LINE
8
RAINBOW_CONTOUR
62
1
10
100
20
65
30
-5.25
11
0
21
66
31
4.699999999999999
0
LINE
8
RAINBOW_CONTOUR
62
1
10
24
20
66
30
2.299999999999999
11
25
21
66
31
-10.8
0
LINE
8
RAINBOW_CONTOUR
62
1
10
99
20
66
30
-5.199999999999999
11
0
21
67
31
4.65
0
LINE
8
RAINBOW_CONTOUR
62
1
10
23
20
67
30
2.3500000000000014
11
25
21
67
31
-10.85
0
LINE
8
RAINBOW_CONTOUR
62
1
10
98
20
67
30
-5.149999999999999
11
0
21
68
31
4.6
0
LINE
8
RAINBOW_CONTOUR
62
1
10
22
20
68
30
2.4000000000000004
11
25
21
68
31
-10.9
0
LINE
8
RAINBOW_CONTOUR
62
1
10
97
20
68
30
-5.100000000000001
11
0
21
69
31
4.549999999999999
0
LINE
8
RAINBOW_CONTOUR
62
1
10
21
20
69
30
2.4499999999999993
11
25
21
69
31
-10.950000000000001
0
LINE
8
RAINBOW_CONTOUR
62
1
10
96
20
69
30
-5.050000000000004
11
0
21
70
31
4.5
0
LINE
8
RAINBOW_CONTOUR
62
1
10
30
20
70
30
1.5
11
31
21
70
31
-11.600000000000001
0
LINE
8
RAINBOW_CONTOUR
62
1
10
100
20
70
30
-5.5
11
0
21
71
31
4.449999999999999
0
LINE
8
RAINBOW_CONTOUR
62
1
10
29
20
71
30
1.5500000000000007
11
30
21
71
31
-11.55
0
LINE
8
RAINBOW_CONTOUR
62
1
10
99
20
71
30
-5.449999999999999
11
0
21
72
31
4.4
0
LINE
8
RAINBOW_CONTOUR
62
1
10
28
20
72
30
1.6000000000000014
11
30
21
72
31
-11.600000000000001
0
LINE
8
RAINBOW_CONTOUR
62
1
10
98
20
72
30
-5.399999999999999
11
0
21
73
31
4.35
0
LINE
8
RAINBOW_CONTOUR
62
1
10
27
20
73
30
1.6499999999999986
11
30
21
73
31
-11.649999999999999
0
LINE
8
RAINBOW_CONTOUR
62
1
10
97
20
73
30
-5.350000000000001
11
0
21
74
31
4.300000000000001
0
LINE
8
RAINBOW_CONTOUR
62
1
10
26
20
74
30
1.6999999999999993
11
30
21
74
31
-11.7
0
LINE
8
RAINBOW_CONTOUR
62
1
10
96
20
74
30
-5.300000000000001
11
0
21
75
31
4.25
0
LINE
8
RAINBOW_CONTOUR
62
1
10
35
20
75
30
0.75
11
36
21
75
31
-12.350000000000001
0
LINE
8
RAINBOW_CONTOUR
62
1
10
100
20
75
30
-5.75
11
0
21
76
31
4.200000000000001
0
LINE
8
RAINBOW_CONTOUR
62
1
10
34
20
76
30
0.8000000000000007
11
35
21
76
31
-12.3
0
LINE
8
RAINBOW_CONTOUR
62
1
10
99
20
76
30
-5.699999999999999
11
0
21
77
31
4.149999999999999
0
LINE
8
RAINBOW_CONTOUR
62
1
10
33
20
77
30
0.8500000000000014
11
35
21
77
31
-12.350000000000001
0
LINE
8
RAINBOW_CONTOUR
62
1
10
98
20
77
30
-5.649999999999999
11
0
21
78
31
4.1
0
LINE
8
RAINBOW_CONTOUR
62
1
10
32
20
78
30
0.8999999999999986
11
35
21
78
31
-12.399999999999999
0
LINE
8
RAINBOW_CONTOUR
62
1
10
97
20
78
30
-5.600000000000001
11
0
21
79
31
4.049999999999999
0
LINE
8
RAINBOW_CONTOUR
62
1
10
31
20
79
30
0.9499999999999993
11
35
21
79
31
-12.45
0
LINE
8
RAINBOW_CONTOUR
62
1
10
96
20
79
30
-5.550000000000001
11
0
21
80
31
4
0
LINE
8
RAINBOW_CONTOUR
62
1
10
64
20
80
30
-2.400000000000002
11
65
21
80
31
-2.5
0
LINE
8
RAINBOW_CONTOUR
62
1
10
65
20
80
30
-2.5
11
66
21
80
31
-2.6000000000000014
0
LINE
8
RAINBOW_CONTOUR
62
1
10
100
20
80
30
-6
11
0
21
81
31
3.9499999999999993
0
LINE
8
RAINBOW_CONTOUR
62
1
10
64
20
81
30
-2.450000000000003
11
65
21
81
31
-2.5500000000000007
0
LINE
8
RAINBOW_CONTOUR
62
1
10
99
20
81
30
-5.950000000000003
11
0
21
82
31
3.8999999999999986
0
LINE
8
RAINBOW_CONTOUR
62
1
10
63
20
82
30
-2.3999999999999986
11
65
21
82
31
-2.6000000000000014
0
LINE
8
RAINBOW_CONTOUR
62
1
10
98
20
82
30
-5.899999999999999
11
0
21
83
31
3.8500000000000014
0
LINE
8
RAINBOW_CONTOUR
62
1
10
62
20
83
30
-2.3500000000000014
11
65
21
83
31
-2.6499999999999986
0
LINE
8
RAINBOW_CONTOUR
62
1
10
97
20
83
30
-5.850000000000001
11
0
21
84
31
3.799999999999999
0
LINE
8
RAINBOW_CONTOUR
62
1
10
61
20
84
30
-2.3000000000000007
11
65
21
84
31
-2.700000000000003
0
LINE
8
RAINBOW_CONTOUR
62
1
10
96
20
84
30
-5.800000000000001
11
0
21
85
31
3.75
0
LINE
8
RAINBOW_CONTOUR
62
1
10
62
20
85
30
-2.450000000000003
11
63
21
85
31
-2.549999999999997
0
LINE
8
RAINBOW_CONTOUR
62
1
10
100
20
85
30
-6.25
11
0
21
86
31
3.6999999999999993
0
LINE
8
RAINBOW_CONTOUR
62
1
10
62
20
86
30
-2.4999999999999964
11
63
21
86
31
-2.6000000000000014
0
LINE
8
RAINBOW_CONTOUR
62
1
10
99
20
86
30
-6.200000000000003
11
0
21
87
31
3.6500000000000004
0
LINE
8
RAINBOW_CONTOUR
62
1
10
61
20
87
30
-2.4499999999999993
11
62
21
87
31
-2.5500000000000043
0
LINE
8
RAINBOW_CONTOUR
62
1
10
98
20
87
30
-6.149999999999999
11
0
21
88
31
3.6000000000000014
0
LINE
8
RAINBOW_CONTOUR
62
1
10
60
20
88
30
-2.3999999999999986
11
61
21
88
31
-2.5
0
LINE
8
RAINBOW_CONTOUR
62
1
10
61
20
88
30
-2.5
11
62
21
88
31
-2.6000000000000014
0
LINE
8
RAINBOW_CONTOUR
62
1
10
97
20
88
30
-6.100000000000001
11
0
21
89
31
3.549999999999999
0
LINE
8
RAINBOW_CONTOUR
62
1
10
60
20
89
30
-2.450000000000003
11
61
21
89
31
-2.5500000000000043
0
LINE
8
RAINBOW_CONTOUR
62
1
10
96
20
89
30
-6.050000000000004
11
0
21
90
31
3.5
0
LINE
8
RAINBOW_CONTOUR
62
1
10
59
20
90
30
-2.400000000000002
11
60
21
90
31
-2.5
0
LINE
8
RAINBOW_CONTOUR
62
1
10
60
20
90
30
-2.5
11
61
21
90
31
-2.6000000000000014
0
LINE
8
RAINBOW_CONTOUR
62
1
10
100
20
90
30
-6.5
11
0
21
91
31
3.4499999999999993
0
LINE
8
RAINBOW_CONTOUR
62
1
10
59
20
91
30
-2.450000000000003
11
60
21
91
31
-2.5500000000000007
0
LINE
8
RAINBOW_CONTOUR
62
1
10
99
20
91
30
-6.449999999999999
11
0
21
92
31
3.4000000000000004
0
LINE
8
RAINBOW_CONTOUR
62
1
10
58
20
92
30
-2.3999999999999986
11
60
21
92
31
-2.6000000000000014
0
LINE
8
RAINBOW_CONTOUR
62
1
10
98
20
92
30
-6.399999999999999
11
0
21
93
31
3.3499999999999996
0
LINE
8
RAINBOW_CONTOUR
62
1
10
57
20
93
30
-2.3500000000000014
11
60
21
93
31
-2.6499999999999986
0
LINE
8
RAINBOW_CONTOUR
62
1
10
97
20
93
30
-6.350000000000001
11
0
21
94
31
3.299999999999999
0
LINE
8
RAINBOW_CONTOUR
62
1
10
56
20
94
30
-2.3000000000000007
11
60
21
94
31
-2.700000000000003
0
LINE
8
RAINBOW_CONTOUR
62
1
10
96
20
94
30
-6.300000000000004
11
0
21
95
31
3.25
0
LINE
8
RAINBOW_CONTOUR
62
1
10
57
20
95
30
-2.450000000000003
11
58
21
95
31
-2.549999999999997
0
LINE
8
RAINBOW_CONTOUR
62
1
10
100
20
95
30
-6.75
11
0
21
96
31
3.1999999999999993
0
LINE
8
RAINBOW_CONTOUR
62
1
10
57
20
96
30
-2.4999999999999964
11
58
21
96
31
-2.6000000000000014
0
LINE
8
RAINBOW_CONTOUR
62
1
10
99
20
96
30
-6.699999999999999
11
0
21
97
31
3.1500000000000004
0
LINE
8
RAINBOW_CONTOUR
62
1
10
56
20
97
30
-2.4499999999999993
11
57
21
97
31
-2.5500000000000043
0
LINE
8
RAINBOW_CONTOUR
62
1
10
98
20
97
30
-6.649999999999999
11
0
21
98
31
3.0999999999999996
0
LINE
8
RAINBOW_CONTOUR
62
1
10
55
20
98
30
-2.3999999999999986
11
56
21
98
31
-2.5
0
LINE
8
RAINBOW_CONTOUR
62
1
10
56
20
98
30
-2.5
11
57
21
98
31
-2.6000000000000014
0
LINE
8
RAINBOW_CONTOUR
62
1
10
97
20
98
30
-6.600000000000001
11
0
21
99
31
3.0500000000000007
0
LINE
8
RAINBOW_CONTOUR
62
1
10
55
20
99
30
-2.450000000000003
11
56
21
99
31
-2.5500000000000043
0
LINE
8
RAINBOW_CONTOUR
62
1
10
96
20
99
30
-6.550000000000001
11
0
21
100
31
3
0
LINE
8
RAINBOW_CONTOUR
62
1
10
50
20
100
30
-2
11
55
21
100
31
-2.5
0
LINE
8
RAINBOW_CONTOUR
62
1
10
55
20
100
30
-2.5
11
60
21
100
31
-3
0
LINE
8
RAINBOW_CONTOUR
62
2
10
79
20
0
30
0.10000000000000142
11
80
21
0
31
0
0
LINE
8
RAINBOW_CONTOUR
62
2
10
80
20
0
30
0
11
81
21
0
31
-0.10000000000000142
0
LINE
8
RAINBOW_CONTOUR
62
2
10
100
20
0
30
-2
11
0
21
1
31
7.950000000000001
0
LINE
8
RAINBOW_CONTOUR
62
2
10
79
20
1
30
0.05000000000000071
11
80
21
1
31
-0.05000000000000071
0
LINE
8
RAINBOW_CONTOUR
62
2
10
99
20
1
30
-1.9499999999999993
11
0
21
2
31
7.899999999999999
0
LINE
8
RAINBOW_CONTOUR
62
2
10
78
20
2
30
0.10000000000000142
11
80
21
2
31
-0.10000000000000142
0
LINE
8
RAINBOW_CONTOUR
62
2
10
98
20
2
30
-1.8999999999999986
11
0
21
3
31
7.850000000000001
0
LINE
8
RAINBOW_CONTOUR
62
2
10
77
20
3
30
0.14999999999999858
11
80
21
3
31
-0.14999999999999858
0
LINE
8
RAINBOW_CONTOUR
62
2
10
97
20
3
30
-1.8500000000000014
11
0
21
4
31
7.799999999999999
0
LINE
8
RAINBOW_CONTOUR
62
2
10
76
20
4
30
0.1999999999999993
11
80
21
4
31
-0.20000000000000284
0
LINE
8
RAINBOW_CONTOUR
62
2
10
96
20
4
30
-1.8000000000000007
11
0
21
5
31
7.75
0
LINE
8
RAINBOW_CONTOUR
62
2
10
77
20
5
30
0.04999999999999716
11
78
21
5
31
-0.05000000000000071
0
LINE
8
RAINBOW_CONTOUR
62
2
10
100
20
5
30
-2.25
11
0
21
6
31
7.699999999999999
0
LINE
8
RAINBOW_CONTOUR
62
2
10
76
20
6
30
0.09999999999999787
11
77
21
6
31
0
0
LINE
8
RAINBOW_CONTOUR
62
2
10
77
20
6
30
0
11
78
21
6
31
-0.10000000000000142
0
LINE
8
RAINBOW_CONTOUR
62
2
10
99
20
6
30
-2.1999999999999993
11
0
21
7
31
7.65
0
LINE
8
RAINBOW_CONTOUR
62
2
10
76
20
7
30
0.05000000000000071
11
77
21
7
31
-0.05000000000000071
0
LINE
8
RAINBOW_CONTOUR
62
2
10
98
20
7
30
-2.1499999999999986
11
0
21
8
31
7.6
0
LINE
8
RAINBOW_CONTOUR
62
2
10
75
20
8
30
0.10000000000000142
11
76
21
8
31
0
0
LINE
8
RAINBOW_CONTOUR
62
2
10
76
20
8
30
0
11
77
21
8
31
-0.10000000000000142
0
LINE
8
RAINBOW_CONTOUR
62
2
10
97
20
8
30
-2.1000000000000014
11
0
21
9
31
7.549999999999999
0
LINE
8
RAINBOW_CONTOUR
62
2
10
75
20
9
30
0.05000000000000071
11
76
21
9
31
-0.05000000000000071
0
LINE
8
RAINBOW_CONTOUR
62
2
10
96
20
9
30
-2.0500000000000007
11
0
21
10
31
7.5
0
LINE
8
RAINBOW_CONTOUR
62
2
10
74
20
10
30
0.10000000000000142
11
75
21
10
31
0
0
LINE
8
RAINBOW_CONTOUR
62
2
10
75
20
10
30
0
11
76
21
10
31
-0.10000000000000142
0
LINE
8
RAINBOW_CONTOUR
62
2
10
100
20
10
30
-2.5
11
0
21
11
31
7.449999999999999
0
LINE
8
RAINBOW_CONTOUR
62
2
10
74
20
11
30
0.05000000000000071
11
75
21
11
31
-0.05000000000000071
0
LINE
8
RAINBOW_CONTOUR
62
2
10
99
20
11
30
-2.450000000000003
11
0
21
12
31
7.4
0
LINE
8
RAINBOW_CONTOUR
62
2
10
73
20
12
30
0.10000000000000142
11
75
21
12
31
-0.10000000000000142
0
LINE
8
RAINBOW_CONTOUR
62
2
10
98
20
12
30
-2.3999999999999986
11
0
21
13
31
7.35
0
LINE
8
RAINBOW_CONTOUR
62
2
10
72
20
13
30
0.14999999999999858
11
75
21
13
31
-0.14999999999999858
0
LINE
8
RAINBOW_CONTOUR
62
2
10
97
20
13
30
-2.3500000000000014
11
0
21
14
31
7.300000000000001
0
LINE
8
RAINBOW_CONTOUR
62
2
10
71
20
14
30
0.1999999999999993
11
75
21
14
31
-0.20000000000000284
0
LINE
8
RAINBOW_CONTOUR
62
2
10
96
20
14
30
-2.3000000000000007
11
0
21
15
31
7.25
0
LINE
8
RAINBOW_CONTOUR
62
2
10
72
20
15
30
0.04999999999999716
11
73
21
15
31
-0.05000000000000071
0
LINE
8
RAINBOW_CONTOUR
62
2
10
100
20
15
30
-2.75
11
0
21
16
31
7.200000000000001
0
LINE
8
RAINBOW_CONTOUR
62
2
10
71
20
16
30
0.09999999999999787
11
72
21
16
31
0
0
LINE
8
RAINBOW_CONTOUR
62
2
10
72
20
16
30
0
11
73
21
16
31
-0.10000000000000142
0
LINE
8
RAINBOW_CONTOUR
62
2
10
99
20
16
30
-2.6999999999999993
11
0
21
17
31
7.149999999999999
0
LINE
8
RAINBOW_CONTOUR
62
2
10
71
20
17
30
0.05000000000000071
11
72
21
17
31
-0.05000000000000071
0
LINE
8
RAINBOW_CONTOUR
62
2
10
98
20
17
30
-2.6499999999999986
11
0
21
18
31
7.100000000000001
0
LINE
8
RAINBOW_CONTOUR
62
2
10
70
20
18
30
0.10000000000000142
11
71
21
18
31
0
0
LINE
8
RAINBOW_CONTOUR
62
2
10
71
20
18
30
0
11
72
21
18
31
-0.10000000000000142
0
LINE
8
RAINBOW_CONTOUR
62
2
10
97
20
18
30
-2.6000000000000014
11
0
21
19
31
7.049999999999999
0
LINE
8
RAINBOW_CONTOUR
62
2
10
70
20
19
30
0.05000000000000071
11
71
21
19
31
-0.05000000000000071
0
LINE
8
RAINBOW_CONTOUR
62
2
10
96
20
19
30
-2.5500000000000043
11
0
21
20
31
7
0
LINE
8
RAINBOW_CONTOUR
62
2
10
69
20
20
30
0.10000000000000142
11
70
21
20
31
0
0
LINE
8
RAINBOW_CONTOUR
62
2
10
70
20
20
30
0
11
71
21
20
31
-0.10000000000000142
0
LINE
8
RAINBOW_CONTOUR
62
2
10
100
20
20
30
-3
11
0
21
21
31
6.949999999999999
0
LINE
8
RAINBOW_CONTOUR
62
2
10
69
20
21
30
0.05000000000000071
11
70
21
21
31
-0.05000000000000071
0
LINE
8
RAINBOW_CONTOUR
62
2
10
99
20
21
30
-2.9499999999999993
11
0
21
22
31
6.9
0
LINE
8
RAINBOW_CONTOUR
62
2
10
68
20
22
30
0.10000000000000142
11
70
21
22
31
-0.10000000000000142
0
LINE
8
RAINBOW_CONTOUR
62
2
10
98
20
22
30
-2.8999999999999986
11
0
21
23
31
6.85
0
LINE
8
RAINBOW_CONTOUR
62
2
10
67
20
23
30
0.14999999999999858
11
70
21
23
31
-0.14999999999999858
0
LINE
8
RAINBOW_CONTOUR
62
2
10
97
20
23
30
-2.8500000000000014
11
0
21
24
31
6.800000000000001
0
LINE
8
RAINBOW_CONTOUR
62
2
10
66
20
24
30
0.1999999999999993
11
70
21
24
31
-0.20000000000000284
0
LINE
8
RAINBOW_CONTOUR
62
2
10
96
20
24
30
-2.8000000000000007
11
0
21
25
31
6.75
0
LINE
8
RAINBOW_CONTOUR
62
2
10
35
20
25
30
3.25
11
36
21
25
31
-9.850000000000001
0
LINE
8
RAINBOW_CONTOUR
62
2
10
100
20
25
30
-3.25
11
0
21
26
31
6.700000000000001
0
LINE
8
RAINBOW_CONTOUR
62
2
10
34
20
26
30
3.3000000000000007
11
35
21
26
31
-9.8
0
LINE
8
RAINBOW_CONTOUR
62
2
10
99
20
26
30
-3.1999999999999993
11
0
21
27
31
6.649999999999999
0
LINE
8
RAINBOW_CONTOUR
62
2
10
33
20
27
30
3.3499999999999996
11
35
21
27
31
-9.85
0
LINE
8
RAINBOW_CONTOUR
62
2
10
98
20
27
30
-3.1499999999999986
11
0
21
28
31
6.600000000000001
0
LINE
8
RAINBOW_CONTOUR
62
2
10
32
20
28
30
3.4000000000000004
11
35
21
28
31
-9.9
0
LINE
8
RAINBOW_CONTOUR
62
2
10
97
20
28
30
-3.1000000000000014
11
0
21
29
31
6.549999999999999
0
LINE
8
RAINBOW_CONTOUR
62
2
10
31
20
29
30
3.4499999999999993
11
35
21
29
31
-9.95
0
LINE
8
RAINBOW_CONTOUR
62
2
10
96
20
29
30
-3.0500000000000007
11
0
21
30
31
6.5
0
LINE
8
RAINBOW_CONTOUR
62
2
10
30
20
30
30
3.5
11
31
21
30
31
-9.600000000000001
0
LINE
8
RAINBOW_CONTOUR
62
2
10
100
20
30
30
-3.5
11
0
21
31
31
6.449999999999999
0
LINE
8
RAINBOW_CONTOUR
62
2
10
29
20
31
30
3.549999999999999
11
30
21
31
31
-9.55
0
LINE
8
RAINBOW_CONTOUR
62
2
10
99
20
31
30
-3.4499999999999993
11
0
21
32
31
6.4
0
LINE
8
RAINBOW_CONTOUR
62
2
10
28
20
32
30
3.6000000000000014
11
30
21
32
31
-9.6
0
LINE
8
RAINBOW_CONTOUR
62
2
10
98
20
32
30
-3.3999999999999986
11
0
21
33
31
6.35
0
LINE
8
RAINBOW_CONTOUR
62
2
10
27
20
33
30
3.6500000000000004
11
30
21
33
31
-9.65
0
LINE
8
RAINBOW_CONTOUR
62
2
10
97
20
33
30
-3.3500000000000014
11
0
21
34
31
6.299999999999999
0
LINE
8
RAINBOW_CONTOUR
62
2
10
26
20
34
30
3.6999999999999993
11
30
21
34
31
-9.700000000000001
0
LINE
8
RAINBOW_CONTOUR
62
2
10
96
20
34
30
-3.3000000000000007
11
0
21
35
31
6.25
0
LINE
8
RAINBOW_CONTOUR
62
2
10
25
20
35
30
3.75
11
26
21
35
31
-9.350000000000001
0
LINE
8
RAINBOW_CONTOUR
62
2
10
100
20
35
30
-3.75
11
0
21
36
31
6.199999999999999
0
LINE
8
RAINBOW_CONTOUR
62
2
10
24
20
36
30
3.8000000000000007
11
25
21
36
31
-9.3
0
LINE
8
RAINBOW_CONTOUR
62
2
10
99
20
36
30
-3.700000000000003
11
0
21
37
31
6.149999999999999
0
LINE
8
RAINBOW_CONTOUR
62
2
10
23
20
37
30
3.8500000000000014
11
25
21
37
31
-9.35
0
LINE
8
RAINBOW_CONTOUR
62
2
10
98
20
37
30
-3.6499999999999986
11
0
21
38
31
6.100000000000001
0
LINE
8
RAINBOW_CONTOUR
62
2
10
22
20
38
30
3.8999999999999986
11
25
21
38
31
-9.399999999999999
0
LINE
8
RAINBOW_CONTOUR
62
2
10
97
20
38
30
-3.6000000000000014
11
0
21
39
31
6.049999999999999
0
LINE
8
RAINBOW_CONTOUR
62
2
10
21
20
39
30
3.9499999999999993
11
25
21
39
31
-9.450000000000001
0
LINE
8
RAINBOW_CONTOUR
62
2
10
96
20
39
30
-3.5500000000000007
11
0
21
40
31
6
0
LINE
8
RAINBOW_CONTOUR
62
2
10
25
20
40
30
3.5
11
26
21
40
31
-9.600000000000001
0
LINE
8
RAINBOW_CONTOUR
62
2
10
100
20
40
30
-4
11
0
21
41
31
5.949999999999999
0
LINE
8
RAINBOW_CONTOUR
62
2
10
24
20
41
30
3.549999999999999
11
25
21
41
31
-9.55
0
LINE
8
RAINBOW_CONTOUR
62
2
10
99
20
41
30
-3.9499999999999993
11
0
21
42
31
5.9
0
LINE
8
RAINBOW_CONTOUR
62
2
10
23
20
42
30
3.6000000000000014
11
25
21
42
31
-9.6
0
LINE
8
RAINBOW_CONTOUR
62
2
10
98
20
42
30
-3.8999999999999986
11
0
21
43
31
5.85
0
LINE
8
RAINBOW_CONTOUR
62
2
10
22
20
43
30
3.6500000000000004
11
25
21
43
31
-9.65
0
LINE
8
RAINBOW_CONTOUR
62
2
10
97
20
43
30
-3.8500000000000014
11
0
21
44
31
5.799999999999999
0
LINE
8
RAINBOW_CONTOUR
62
2
10
21
20
44
30
3.6999999999999993
11
25
21
44
31
-9.700000000000001
0
LINE
8
RAINBOW_CONTOUR
62
2
10
96
20
44
30
-3.8000000000000043
11
0
21
45
31
5.75
0
LINE
8
RAINBOW_CONTOUR
62
2
10
25
20
45
30
3.25
11
26
21
45
31
-9.850000000000001
0
LINE
8
RAINBOW_CONTOUR
62
2
10
100
20
45
30
-4.25
11
0
21
46
31
5.699999999999999
0
LINE
8
RAINBOW_CONTOUR
62
2
10
24
20
46
30
3.3000000000000007
11
25
21
46
31
-9.8
0
LINE
8
RAINBOW_CONTOUR
62
2
10
99
20
46
30
-4.199999999999999
11
0
21
47
31
5.65
0
LINE
8
RAINBOW_CONTOUR
62
2
10
23
20
47
30
3.3499999999999996
11
25
21
47
31
-9.85
0
LINE
8
RAINBOW_CONTOUR
62
2
10
98
20
47
30
-4.149999999999999
11
0
21
48
31
5.6
0
LINE
8
RAINBOW_CONTOUR
62
2
10
22
20
48
30
3.4000000000000004
11
25
21
48
31
-9.9
0
LINE
8
RAINBOW_CONTOUR
62
2
10
97
20
48
30
-4.100000000000001
11
0
21
49
31
5.550000000000001
0
LINE
8
RAINBOW_CONTOUR
62
2
10
21
20
49
30
3.4499999999999993
11
25
21
49
31
-9.95
0
LINE
8
RAINBOW_CONTOUR
62
2
10
96
20
49
30
-4.050000000000001
11
0
21
50
31
5.5
0
LINE
8
RAINBOW_CONTOUR
62
2
10
25
20
50
30
3
11
26
21
50
31
-10.1
0
LINE
8
RAINBOW_CONTOUR
62
2
10
100
20
50
30
-4.5
11
0
21
51
31
5.450000000000001
0
LINE
8
RAINBOW_CONTOUR
62
2
10
24
20
51
30
3.0500000000000007
11
25
21
51
31
-10.049999999999999
0
LINE
8
RAINBOW_CONTOUR
62
2
10
99
20
51
30
-4.449999999999999
11
0
21
52
31
5.399999999999999
0
LINE
8
RAINBOW_CONTOUR
62
2
10
23
20
52
30
3.0999999999999996
11
25
21
52
31
-10.100000000000001
0
LINE
8
RAINBOW_CONTOUR
62
2
10
98
20
52
30
-4.399999999999999
11
0
21
53
31
5.350000000000001
0
LINE
8
RAINBOW_CONTOUR
62
2
10
22
20
53
30
3.1500000000000004
11
25
21
53
31
-10.15
0
LINE
8
RAINBOW_CONTOUR
62
2
10
97
20
53
30
-4.350000000000001
11
0
21
54
31
5.299999999999999
0
LINE
8
RAINBOW_CONTOUR
62
2
10
21
20
54
30
3.1999999999999993
11
25
21
54
31
-10.200000000000001
0
LINE
8
RAINBOW_CONTOUR
62
2
10
96
20
54
30
-4.300000000000001
11
0
21
55
31
5.25
0
LINE
8
RAINBOW_CONTOUR
62
2
10
25
20
55
30
2.75
11
26
21
55
31
-10.350000000000001
0
LINE
8
RAINBOW_CONTOUR
62
2
10
100
20
55
30
-4.75
11
0
21
56
31
5.199999999999999
0
LINE
8
RAINBOW_CONTOUR
62
2
10
24
20
56
30
2.8000000000000007
11
25
21
56
31
-10.3
0
LINE
8
RAINBOW_CONTOUR
62
2
10
99
20
56
30
-4.699999999999999
11
0
21
57
31
5.15
0
LINE
8
RAINBOW_CONTOUR
62
2
10
23
20
57
30
2.8499999999999996
11
25
21
57
31
-10.350000000000001
0
LINE
8
RAINBOW_CONTOUR
62
2
10
98
20
57
30
-4.649999999999999
11
0
21
58
31
5.1
0
LINE
8
RAINBOW_CONTOUR
62
2
10
22
20
58
30
2.8999999999999986
11
25
21
58
31
-10.399999999999999
0
LINE
8
RAINBOW_CONTOUR
62
2
10
97
20
58
30
-4.600000000000001
11
0
21
59
31
5.049999999999999
0
LINE
8
RAINBOW_CONTOUR
62
2
10
21
20
59
30
2.9499999999999993
11
25
21
59
31
-10.450000000000001
0
LINE
8
RAINBOW_CONTOUR
62
2
10
96
20
59
30
-4.550000000000001
11
0
21
60
31
5
0
LINE
8
RAINBOW_CONTOUR
62
2
10
25
20
60
30
2.5
11
26
21
60
31
-10.600000000000001
0
LINE
8
RAINBOW_CONTOUR
62
2
10
100
20
60
30
-5
11
0
21
61
31
4.949999999999999
0
LINE
8
RAINBOW_CONTOUR
62
2
10
24
20
61
30
2.5500000000000007
11
25
21
61
31
-10.55
0
LINE
8
RAINBOW_CONTOUR
62
2
10
99
20
61
30
-4.950000000000003
11
0
21
62
31
4.899999999999999
0
LINE
8
RAINBOW_CONTOUR
62
2
10
23
20
62
30
2.6000000000000014
11
25
21
62
31
-10.6
0
LINE
8
RAINBOW_CONTOUR
62
2
10
98
20
62
30
-4.899999999999999
11
0
21
63
31
4.850000000000001
0
LINE
8
RAINBOW_CONTOUR
62
2
10
22
20
63
30
2.6499999999999986
11
25
21
63
31
-10.649999999999999
0
LINE
8
RAINBOW_CONTOUR
62
2
10
97
20
63
30
-4.850000000000001
11
0
21
64
31
4.799999999999999
0
LINE
8
RAINBOW_CONTOUR
62
2
10
21
20
64
30
2.6999999999999993
11
25
21
64
31
-10.700000000000001
0
LINE
8
RAINBOW_CONTOUR
62
2
10
96
20
64
30
-4.800000000000001
11
0
21
65
31
4.75
0
LINE
8
RAINBOW_CONTOUR
62
2
10
25
20
65
30
2.25
11
26
21
65
31
-10.850000000000001
0
LINE
8
RAINBOW_CONTOUR
62
2
10
100
20
65
30
-5.25
11
0
21
66
31
4.699999999999999
0
LINE
8
RAINBOW_CONTOUR
62
2
10
24
20
66
30
2.299999999999999
11
25
21
66
31
-10.8
0
LINE
8
RAINBOW_CONTOUR
62
2
10
99
20
66
30
-5.199999999999999
11
0
21
67
31
4.65
0
LINE
8
RAINBOW_CONTOUR
62
2
10
23
20
67
30
2.3500000000000014
11
25
21
67
31
-10.85
0
LINE
8
RAINBOW_CONTOUR
62
2
10
98
20
67
30
-5.149999999999999
11
0
21
68
31
4.6
0
LINE
8
RAINBOW_CONTOUR
62
2
10
22
20
68
30
2.4000000000000004
11
25
21
68
31
-10.9
0
LINE
8
RAINBOW_CONTOUR
62
2
10
97
20
68
30
-5.100000000000001
11
0
21
69
31
4.549999999999999
0
LINE
8
RAINBOW_CONTOUR
62
2
10
21
20
69
30
2.4499999999999993
11
25
21
69
31
-10.950000000000001
0
LINE
8
RAINBOW_CONTOUR
62
2
10
96
20
69
30
-5.050000000000004
11
0
21
70
31
4.5
0
LINE
8
RAINBOW_CONTOUR
62
2
10
30
20
70
30
1.5
11
31
21
70
31
-11.600000000000001
0
LINE
8
RAINBOW_CONTOUR
62
2
10
100
20
70
30
-5.5
11
0
21
71
31
4.449999999999999
0
LINE
8
RAINBOW_CONTOUR
62
2
10
29
20
71
30
1.5500000000000007
11
30
21
71
31
-11.55
0
LINE
8
RAINBOW_CONTOUR
62
2
10
99
20
71
30
-5.449999999999999
11
0
21
72
31
4.4
0
LINE
8
RAINBOW_CONTOUR
62
2
10
28
20
72
30
1.6000000000000014
11
30
21
72
31
-11.600000000000001
0
LINE
8
RAINBOW_CONTOUR
62
2
10
98
20
72
30
-5.399999999999999
11
0
21
73
31
4.35
0
LINE
8
RAINBOW_CONTOUR
62
2
10
27
20
73
30
1.6499999999999986
11
30
21
73
31
-11.649999999999999
0
LINE
8
RAINBOW_CONTOUR
62
2
10
97
20
73
30
-5.350000000000001
11
0
21
74
31
4.300000000000001
0
LINE
8
RAINBOW_CONTOUR
62
2
10
26
20
74
30
1.6999999999999993
11
30
21
74
31
-11.7
0
LINE
8
RAINBOW_CONTOUR
62
2
10
96
20
74
30
-5.300000000000001
11
0
21
75
31
4.25
0
LINE
8
RAINBOW_CONTOUR
62
2
10
35
20
75
30
0.75
11
36
21
75
31
-12.350000000000001
0
LINE
8
RAINBOW_CONTOUR
62
2
10
100
20
75
30
-5.75
11
0
21
76
31
4.200000000000001
0
LINE
8
RAINBOW_CONTOUR
62
2
10
34
20
76
30
0.8000000000000007
11
35
21
76
31
-12.3
0
LINE
8
RAINBOW_CONTOUR
62
2
10
99
20
76
30
-5.699999999999999
11
0
21
77
31
4.149999999999999
0
LINE
8
RAINBOW_CONTOUR
62
2
10
33
20
77
30
0.8500000000000014
11
35
21
77
31
-12.350000000000001
0
LINE
8
RAINBOW_CONTOUR
62
2
10
98
20
77
30
-5.649999999999999
11
0
21
78
31
4.1
0
LINE
8
RAINBOW_CONTOUR
62
2
10
32
20
78
30
0.8999999999999986
11
35
21
78
31
-12.399999999999999
0
LINE
8
RAINBOW_CONTOUR
62
2
10
97
20
78
30
-5.600000000000001
11
0
21
79
31
4.049999999999999
0
LINE
8
RAINBOW_CONTOUR
62
2
10
31
20
79
30
0.9499999999999993
11
35
21
79
31
-12.45
0
LINE
8
RAINBOW_CONTOUR
62
2
10
96
20
79
30
-5.550000000000001
11
0
21
80
31
4
0
LINE
8
RAINBOW_CONTOUR
62
2
10
39
20
80
30
0.10000000000000142
11
40
21
80
31
0
0
LINE
8
RAINBOW_CONTOUR
62
2
10
40
20
80
30
0
11
41
21
80
31
-0.10000000000000142
0
LINE
8
RAINBOW_CONTOUR
62
2
10
100
20
80
30
-6
11
0
21
81
31
3.9499999999999993
0
LINE
8
RAINBOW_CONTOUR
62
2
10
39
20
81
30
0.05000000000000071
11
40
21
81
31
-0.05000000000000071
0
LINE
8
RAINBOW_CONTOUR
62
2
10
99
20
81
30
-5.950000000000003
11
0
21
82
31
3.8999999999999986
0
LINE
8
RAINBOW_CONTOUR
62
2
10
38
20
82
30
0.10000000000000142
11
40
21
82
31
-0.10000000000000142
0
LINE
8
RAINBOW_CONTOUR
62
2
10
98
20
82
30
-5.899999999999999
11
0
21
83
31
3.8500000000000014
0
LINE
8
RAINBOW_CONTOUR
62
2
10
37
20
83
30
0.14999999999999858
11
40
21
83
31
-0.14999999999999858
0
LINE
8
RAINBOW_CONTOUR
62
2
10
97
20
83
30
-5.850000000000001
11
0
21
84
31
3.799999999999999
0
LINE
8
RAINBOW_CONTOUR
62
2
10
36
20
84
30
0.1999999999999993
11
40
21
84
31
-0.20000000000000284
0
LINE
8
RAINBOW_CONTOUR
62
2
10
96
20
84
30
-5.800000000000001
11
0
21
85
31
3.75
0
LINE
8
RAINBOW_CONTOUR
62
2
10
37
20
85
30
0.04999999999999716
11
38
21
85
31
-0.05000000000000071
0
LINE
8
RAINBOW_CONTOUR
62
2
10
100
20
85
30
-6.25
11
0
21
86
31
3.6999999999999993
0
LINE
8
RAINBOW_CONTOUR
62
2
10
36
20
86
30
0.09999999999999787
11
37
21
86
31
0
0
LINE
8
RAINBOW_CONTOUR
62
2
10
37
20
86
30
0
11
38
21
86
31
-0.10000000000000142
0
LINE
8
RAINBOW_CONTOUR
62
2
10
99
20
86
30
-6.200000000000003
11
0
21
87
31
3.6500000000000004
0
LINE
8
RAINBOW_CONTOUR
62
2
10
36
20
87
30
0.05000000000000071
11
37
21
87
31
-0.05000000000000071
0
LINE
8
RAINBOW_CONTOUR
62
2
10
98
20
87
30
-6.149999999999999
11
0
21
88
31
3.6000000000000014
0
LINE
8
RAINBOW_CONTOUR
62
2
10
35
20
88
30
0.10000000000000142
11
36
21
88
31
0
0
LINE
8
RAINBOW_CONTOUR
62
2
10
36
20
88
30
0
11
37
21
88
31
-0.10000000000000142
0
LINE
8
RAINBOW_CONTOUR
62
2
10
97
20
88
30
-6.100000000000001
11
0
21
89
31
3.549999999999999
0
LINE
8
RAINBOW_CONTOUR
62
2
10
35
20
89
30
0.05000000000000071
11
36
21
89
31
-0.05000000000000071
0
LINE
8
RAINBOW_CONTOUR
62
2
10
96
20
89
30
-6.050000000000004
11
0
21
90
31
3.5
0
LINE
8
RAINBOW_CONTOUR
62
2
10
34
20
90
30
0.10000000000000142
11
35
21
90
31
0
0
LINE
8
RAINBOW_CONTOUR
62
2
10
35
20
90
30
0
11
36
21
90
31
-0.10000000000000142
0
LINE
8
RAINBOW_CONTOUR
62
2
10
100
20
90
30
-6.5
11
0
21
91
31
3.4499999999999993
0
LINE
8
RAINBOW_CONTOUR
62
2
10
34
20
91
30
0.05000000000000071
11
35
21
91
31
-0.05000000000000071
0
LINE
8
RAINBOW_CONTOUR
62
2
10
99
20
91
30
-6.449999999999999
11
0
21
92
31
3.4000000000000004
0
LINE
8
RAINBOW_CONTOUR
62
2
10
33
20
92
30
0.10000000000000142
11
35
21
92
31
-0.10000000000000142
0
LINE
8
RAINBOW_CONTOUR
62
2
10
98
20
92
30
-6.399999999999999
11
0
21
93
31
3.3499999999999996
0
LINE
8
RAINBOW_CONTOUR
62
2
10
32
20
93
30
0.14999999999999858
11
35
21
93
31
-0.14999999999999858
0
LINE
8
RAINBOW_CONTOUR
62
2
10
97
20
93
30
-6.350000000000001
11
0
21
94
31
3.299999999999999
0
LINE
8
RAINBOW_CONTOUR
62
2
10
31
20
94
30
0.1999999999999993
11
35
21
94
31
-0.20000000000000284
0
LINE
8
RAINBOW_CONTOUR
62
2
10
96
20
94
30
-6.300000000000004
11
0
21
95
31
3.25
0
LINE
8
RAINBOW_CONTOUR
62
2
10
32
20
95
30
0.04999999999999716
11
33
21
95
31
-0.05000000000000071
0
LINE
8
RAINBOW_CONTOUR
62
2
10
100
20
95
30
-6.75
11
0
21
96
31
3.1999999999999993
0
LINE
8
RAINBOW_CONTOUR
62
2
10
31
20
96
30
0.09999999999999787
11
32
21
96
31
0
0
LINE
8
RAINBOW_CONTOUR
62
2
10
32
20
96
30
0
11
33
21
96
31
-0.10000000000000142
0
LINE
8
RAINBOW_CONTOUR
62
2
10
99
20
96
30
-6.699999999999999
11
0
21
97
31
3.1500000000000004
0
LINE
8
RAINBOW_CONTOUR
62
2
10
31
20
97
30
0.05000000000000071
11
32
21
97
31
-0.05000000000000071
0
LINE
8
RAINBOW_CONTOUR
62
2
10
98
20
97
30
-6.649999999999999
11
0
21
98
31
3.0999999999999996
0
LINE
8
RAINBOW_CONTOUR
62
2
10
30
20
98
30
0.10000000000000142
11
31
21
98
31
0
0
LINE
8
RAINBOW_CONTOUR
62
2
10
31
20
98
30
0
11
32
21
98
31
-0.10000000000000142
0
LINE
8
RAINBOW_CONTOUR
62
2
10
97
20
98
30
-6.600000000000001
11
0
21
99
31
3.0500000000000007
0
LINE
8
RAINBOW_CONTOUR
62
2
10
30
20
99
30
0.05000000000000071
11
31
21
99
31
-0.05000000000000071
0
LINE
8
RAINBOW_CONTOUR
62
2
10
96
20
99
30
-6.550000000000001
11
0
21
100
31
3
0
LINE
8
RAINBOW_CONTOUR
62
2
10
25
20
100
30
0.5
11
30
21
100
31
0
0
LINE
8
RAINBOW_CONTOUR
62
2
10
30
20
100
30
0
11
35
21
100
31
-0.5
0
LINE
8
RAINBOW_CONTOUR
62
140
10
54
20
0
30
2.5999999999999996
11
55
21
0
31
2.5
0
LINE
8
RAINBOW_CONTOUR
62
140
10
55
20
0
30
2.5
11
56
21
0
31
2.3999999999999986
0
LINE
8
RAINBOW_CONTOUR
62
140
10
100
20
0
30
-2
11
0
21
1
31
7.950000000000001
0
LINE
8
RAINBOW_CONTOUR
62
140
10
54
20
1
30
2.5500000000000007
11
55
21
1
31
2.4499999999999993
0
LINE
8
RAINBOW_CONTOUR
62
140
10
99
20
1
30
-1.9499999999999993
11
0
21
2
31
7.899999999999999
0
LINE
8
RAINBOW_CONTOUR
62
140
10
53
20
2
30
2.6000000000000014
11
55
21
2
31
2.4000000000000004
0
LINE
8
RAINBOW_CONTOUR
62
140
10
98
20
2
30
-1.8999999999999986
11
0
21
3
31
7.850000000000001
0
LINE
8
RAINBOW_CONTOUR
62
140
10
52
20
3
30
2.6499999999999986
11
55
21
3
31
2.3500000000000014
0
LINE
8
RAINBOW_CONTOUR
62
140
10
97
20
3
30
-1.8500000000000014
11
0
21
4
31
7.799999999999999
0
LINE
8
RAINBOW_CONTOUR
62
140
10
51
20
4
30
2.6999999999999993
11
55
21
4
31
2.299999999999999
0
LINE
8
RAINBOW_CONTOUR
62
140
10
96
20
4
30
-1.8000000000000007
11
0
21
5
31
7.75
0
LINE
8
RAINBOW_CONTOUR
62
140
10
52
20
5
30
2.549999999999999
11
53
21
5
31
2.4499999999999993
0
LINE
8
RAINBOW_CONTOUR
62
140
10
100
20
5
30
-2.25
11
0
21
6
31
7.699999999999999
0
LINE
8
RAINBOW_CONTOUR
62
140
10
51
20
6
30
2.5999999999999996
11
52
21
6
31
2.4999999999999982
0
LINE
8
RAINBOW_CONTOUR
62
140
10
99
20
6
30
-2.1999999999999993
11
0
21
7
31
7.65
0
LINE
8
RAINBOW_CONTOUR
62
140
10
51
20
7
30
2.5500000000000007
11
52
21
7
31
2.4499999999999993
0
LINE
8
RAINBOW_CONTOUR
62
140
10
98
20
7
30
-2.1499999999999986
11
0
21
8
31
7.6
0
LINE
8
RAINBOW_CONTOUR
62
140
10
50
20
8
30
2.6000000000000014
11
51
21
8
31
2.4999999999999982
0
LINE
8
RAINBOW_CONTOUR
62
140
10
97
20
8
30
-2.1000000000000014
11
0
21
9
31
7.549999999999999
0
LINE
8
RAINBOW_CONTOUR
62
140
10
50
20
9
30
2.549999999999999
11
51
21
9
31
2.4499999999999993
0
LINE
8
RAINBOW_CONTOUR
62
140
10
96
20
9
30
-2.0500000000000007
11
0
21
10
31
7.5
0
LINE
8
RAINBOW_CONTOUR
62
140
10
49
20
10
30
2.5999999999999996
11
50
21
10
31
2.5
0
LINE
8
RAINBOW_CONTOUR
62
140
10
50
20
10
30
2.5
11
51
21
10
31
2.3999999999999986
0
LINE
8
RAINBOW_CONTOUR
62
140
10
100
20
10
30
-2.5
11
0
21
11
31
7.449999999999999
0
LINE
8
RAINBOW_CONTOUR
62
140
10
49
20
11
30
2.5500000000000007
11
50
21
11
31
2.4499999999999993
0
LINE
8
RAINBOW_CONTOUR
62
140
10
99
20
11
30
-2.450000000000003
11
0
21
12
31
7.4
0
LINE
8
RAINBOW_CONTOUR
62
140
10
48
20
12
30
2.6000000000000014
11
50
21
12
31
2.4000000000000004
0
LINE
8
RAINBOW_CONTOUR
62
140
10
98
20
12
30
-2.3999999999999986
11
0
21
13
31
7.35
0
LINE
8
RAINBOW_CONTOUR
62
140
10
47
20
13
30
2.6499999999999986
11
50
21
13
31
2.3500000000000014
0
LINE
8
RAINBOW_CONTOUR
62
140
10
97
20
13
30
-2.3500000000000014
11
0
21
14
31
7.300000000000001
0
LINE
8
RAINBOW_CONTOUR
62
140
10
46
20
14
30
2.6999999999999993
11
50
21
14
31
2.299999999999999
0
LINE
8
RAINBOW_CONTOUR
62
140
10
96
20
14
30
-2.3000000000000007
11
0
21
15
31
7.25
0
LINE
8
RAINBOW_CONTOUR
62
140
10
47
20
15
30
2.549999999999999
11
48
21
15
31
2.4499999999999993
0
LINE
8
RAINBOW_CONTOUR
62
140
10
100
20
15
30
-2.75
11
0
21
16
31
7.200000000000001
0
LINE
8
RAINBOW_CONTOUR
62
140
10
46
20
16
30
2.5999999999999996
11
47
21
16
31
2.4999999999999982
0
LINE
8
RAINBOW_CONTOUR
62
140
10
99
20
16
30
-2.6999999999999993
11
0
21
17
31
7.149999999999999
0
LINE
8
RAINBOW_CONTOUR
62
140
10
46
20
17
30
2.5500000000000007
11
47
21
17
31
2.4499999999999993
0
LINE
8
RAINBOW_CONTOUR
62
140
10
98
20
17
30
-2.6499999999999986
11
0
21
18
31
7.100000000000001
0
LINE
8
RAINBOW_CONTOUR
62
140
10
45
20
18
30
2.6000000000000014
11
46
21
18
31
2.4999999999999982
0
LINE
8
RAINBOW_CONTOUR
62
140
10
97
20
18
30
-2.6000000000000014
11
0
21
19
31
7.049999999999999
0
LINE
8
RAINBOW_CONTOUR
62
140
10
45
20
19
30
2.549999999999999
11
46
21
19
31
2.4499999999999993
0
LINE
8
RAINBOW_CONTOUR
62
140
10
96
20
19
30
-2.5500000000000043
11
0
21
20
31
7
0
LINE
8
RAINBOW_CONTOUR
62
140
10
44
20
20
30
2.5999999999999996
11
45
21
20
31
2.5
0
LINE
8
RAINBOW_CONTOUR
62
140
10
45
20
20
30
2.5
11
46
21
20
31
2.3999999999999986
0
LINE
8
RAINBOW_CONTOUR
62
140
10
100
20
20
30
-3
11
0
21
21
31
6.949999999999999
0
LINE
8
RAINBOW_CONTOUR
62
140
10
44
20
21
30
2.5500000000000007
11
45
21
21
31
2.4499999999999993
0
LINE
8
RAINBOW_CONTOUR
62
140
10
99
20
21
30
-2.9499999999999993
11
0
21
22
31
6.9
0
LINE
8
RAINBOW_CONTOUR
62
140
10
43
20
22
30
2.6000000000000014
11
45
21
22
31
2.4000000000000004
0
LINE
8
RAINBOW_CONTOUR
62
140
10
98
20
22
30
-2.8999999999999986
11
0
21
23
31
6.85
0
LINE
8
RAINBOW_CONTOUR
62
140
10
42
20
23
30
2.6499999999999986
11
45
21
23
31
2.3500000000000014
0
LINE
8
RAINBOW_CONTOUR
62
140
10
97
20
23
30
-2.8500000000000014
11
0
21
24
31
6.800000000000001
0
LINE
8
RAINBOW_CONTOUR
62
140
10
41
20
24
30
2.6999999999999993
11
45
21
24
31
2.299999999999999
0
LINE
8
RAINBOW_CONTOUR
62
140
10
96
20
24
30
-2.8000000000000007
11
0
21
25
31
6.75
0
LINE
8
RAINBOW_CONTOUR
62
140
10
35
20
25
30
3.25
11
36
21
25
31
-9.850000000000001
0
LINE
8
RAINBOW_CONTOUR
62
140
10
100
20
25
30
-3.25
11
0
21
26
31
6.700000000000001
0
LINE
8
RAINBOW_CONTOUR
62
140
10
34
20
26
30
3.3000000000000007
11
35
21
26
31
-9.8
0
LINE
8
RAINBOW_CONTOUR
62
140
10
99
20
26
30
-3.1999999999999993
11
0
21
27
31
6.649999999999999
0
LINE
8
RAINBOW_CONTOUR
62
140
10
33
20
27
30
3.3499999999999996
11
35
21
27
31
-9.85
0
LINE
8
RAINBOW_CONTOUR
62
140
10
98
20
27
30
-3.1499999999999986
11
0
21
28
31
6.600000000000001
0
LINE
8
RAINBOW_CONTOUR
62
140
10
32
20
28
30
3.4000000000000004
11
35
21
28
31
-9.9
0
LINE
8
RAINBOW_CONTOUR
62
140
10
97
20
28
30
-3.1000000000000014
11
0
21
29
31
6.549999999999999
0
LINE
8
RAINBOW_CONTOUR
62
140
10
31
20
29
30
3.4499999999999993
11
35
21
29
31
-9.95
0
LINE
8
RAINBOW_CONTOUR
62
140
10
96
20
29
30
-3.0500000000000007
11
0
21
30
31
6.5
0
LINE
8
RAINBOW_CONTOUR
62
140
10
30
20
30
30
3.5
11
31
21
30
31
-9.600000000000001
0
LINE
8
RAINBOW_CONTOUR
62
140
10
100
20
30
30
-3.5
11
0
21
31
31
6.449999999999999
0
LINE
8
RAINBOW_CONTOUR
62
140
10
29
20
31
30
3.549999999999999
11
30
21
31
31
-9.55
0
LINE
8
RAINBOW_CONTOUR
62
140
10
99
20
31
30
-3.4499999999999993
11
0
21
32
31
6.4
0
LINE
8
RAINBOW_CONTOUR
62
140
10
28
20
32
30
3.6000000000000014
11
30
21
32
31
-9.6
0
LINE
8
RAINBOW_CONTOUR
62
140
10
98
20
32
30
-3.3999999999999986
11
0
21
33
31
6.35
0
LINE
8
RAINBOW_CONTOUR
62
140
10
27
20
33
30
3.6500000000000004
11
30
21
33
31
-9.65
0
LINE
8
RAINBOW_CONTOUR
62
140
10
97
20
33
30
-3.3500000000000014
11
0
21
34
31
6.299999999999999
0
LINE
8
RAINBOW_CONTOUR
62
140
10
26
20
34
30
3.6999999999999993
11
30
21
34
31
-9.700000000000001
0
LINE
8
RAINBOW_CONTOUR
62
140
10
96
20
34
30
-3.3000000000000007
11
0
21
35
31
6.25
0
LINE
8
RAINBOW_CONTOUR
62
140
10
25
20
35
30
3.75
11
26
21
35
31
-9.350000000000001
0
LINE
8
RAINBOW_CONTOUR
62
140
10
100
20
35
30
-3.75
11
0
21
36
31
6.199999999999999
0
LINE
8
RAINBOW_CONTOUR
62
140
10
24
20
36
30
3.8000000000000007
11
25
21
36
31
-9.3
0
LINE
8
RAINBOW_CONTOUR
62
140
10
99
20
36
30
-3.700000000000003
11
0
21
37
31
6.149999999999999
0
LINE
8
RAINBOW_CONTOUR
62
140
10
23
20
37
30
3.8500000000000014
11
25
21
37
31
-9.35
0
LINE
8
RAINBOW_CONTOUR
62
140
10
98
20
37
30
-3.6499999999999986
11
0
21
38
31
6.100000000000001
0
LINE
8
RAINBOW_CONTOUR
62
140
10
22
20
38
30
3.8999999999999986
11
25
21
38
31
-9.399999999999999
0
LINE
8
RAINBOW_CONTOUR
62
140
10
97
20
38
30
-3.6000000000000014
11
0
21
39
31
6.049999999999999
0
LINE
8
RAINBOW_CONTOUR
62
140
10
21
20
39
30
3.9499999999999993
11
25
21
39
31
-9.450000000000001
0
LINE
8
RAINBOW_CONTOUR
62
140
10
96
20
39
30
-3.5500000000000007
11
0
21
40
31
6
0
LINE
8
RAINBOW_CONTOUR
62
140
10
25
20
40
30
3.5
11
26
21
40
31
-9.600000000000001
0
LINE
8
RAINBOW_CONTOUR
62
140
10
100
20
40
30
-4
11
0
21
41
31
5.949999999999999
0
LINE
8
RAINBOW_CONTOUR
62
140
10
24
20
41
30
3.549999999999999
11
25
21
41
31
-9.55
0
LINE
8
RAINBOW_CONTOUR
62
140
10
99
20
41
30
-3.9499999999999993
11
0
21
42
31
5.9
0
LINE
8
RAINBOW_CONTOUR
62
140
10
23
20
42
30
3.6000000000000014
11
25
21
42
31
-9.6
0
LINE
8
RAINBOW_CONTOUR
62
140
10
98
20
42
30
-3.8999999999999986
11
0
21
43
31
5.85
0
LINE
8
RAINBOW_CONTOUR
62
140
10
22
20
43
30
3.6500000000000004
11
25
21
43
31
-9.65
0
LINE
8
RAINBOW_CONTOUR
62
140
10
97
20
43
30
-3.8500000000000014
11
0
21
44
31
5.799999999999999
0
LINE
8
RAINBOW_CONTOUR
62
140
10
21
20
44
30
3.6999999999999993
11
25
21
44
31
-9.700000000000001
0
LINE
8
RAINBOW_CONTOUR
62
140
10
96
20
44
30
-3.8000000000000043
11
0
21
45
31
5.75
0
LINE
8
RAINBOW_CONTOUR
62
140
10
25
20
45
30
3.25
11
26
21
45
31
-9.850000000000001
0
LINE
8
RAINBOW_CONTOUR
62
140
10
100
20
45
30
-4.25
11
0
21
46
31
5.699999999999999
0
LINE
8
RAINBOW_CONTOUR
62
140
10
24
20
46
30
3.3000000000000007
11
25
21
46
31
-9.8
0
LINE
8
RAINBOW_CONTOUR
62
140
10
99
20
46
30
-4.199999999999999
11
0
21
47
31
5.65
0
LINE
8
RAINBOW_CONTOUR
62
140
10
23
20
47
30
3.3499999999999996
11
25
21
47
31
-9.85
0
LINE
8
RAINBOW_CONTOUR
62
140
10
98
20
47
30
-4.149999999999999
11
0
21
48
31
5.6
0
LINE
8
RAINBOW_CONTOUR
62
140
10
22
20
48
30
3.4000000000000004
11
25
21
48
31
-9.9
0
LINE
8
RAINBOW_CONTOUR
62
140
10
97
20
48
30
-4.100000000000001
11
0
21
49
31
5.550000000000001
0
LINE
8
RAINBOW_CONTOUR
62
140
10
21
20
49
30
3.4499999999999993
11
25
21
49
31
-9.95
0
LINE
8
RAINBOW_CONTOUR
62
140
10
96
20
49
30
-4.050000000000001
11
0
21
50
31
5.5
0
LINE
8
RAINBOW_CONTOUR
62
140
10
25
20
50
30
3
11
26
21
50
31
-10.1
0
LINE
8
RAINBOW_CONTOUR
62
140
10
100
20
50
30
-4.5
11
0
21
51
31
5.450000000000001
0
LINE
8
RAINBOW_CONTOUR
62
140
10
24
20
51
30
3.0500000000000007
11
25
21
51
31
-10.049999999999999
0
LINE
8
RAINBOW_CONTOUR
62
140
10
99
20
51
30
-4.449999999999999
11
0
21
52
31
5.399999999999999
0
LINE
8
RAINBOW_CONTOUR
62
140
10
23
20
52
30
3.0999999999999996
11
25
21
52
31
-10.100000000000001
0
LINE
8
RAINBOW_CONTOUR
62
140
10
98
20
52
30
-4.399999999999999
11
0
21
53
31
5.350000000000001
0
LINE
8
RAINBOW_CONTOUR
62
140
10
22
20
53
30
3.1500000000000004
11
25
21
53
31
-10.15
0
LINE
8
RAINBOW_CONTOUR
62
140
10
97
20
53
30
-4.350000000000001
11
0
21
54
31
5.299999999999999
0
LINE
8
RAINBOW_CONTOUR
62
140
10
21
20
54
30
3.1999999999999993
11
25
21
54
31
-10.200000000000001
0
LINE
8
RAINBOW_CONTOUR
62
140
10
96
20
54
30
-4.300000000000001
11
0
21
55
31
5.25
0
LINE
8
RAINBOW_CONTOUR
62
140
10
25
20
55
30
2.75
11
26
21
55
31
-10.350000000000001
0
LINE
8
RAINBOW_CONTOUR
62
140
10
100
20
55
30
-4.75
11
0
21
56
31
5.199999999999999
0
LINE
8
RAINBOW_CONTOUR
62
140
10
24
20
56
30
2.8000000000000007
11
25
21
56
31
-10.3
0
LINE
8
RAINBOW_CONTOUR
62
140
10
99
20
56
30
-4.699999999999999
11
0
21
57
31
5.15
0
LINE
8
RAINBOW_CONTOUR
62
140
10
23
20
57
30
2.8499999999999996
11
25
21
57
31
-10.350000000000001
0
LINE
8
RAINBOW_CONTOUR
62
140
10
98
20
57
30
-4.649999999999999
11
0
21
58
31
5.1
0
LINE
8
RAINBOW_CONTOUR
62
140
10
22
20
58
30
2.8999999999999986
11
25
21
58
31
-10.399999999999999
0
LINE
8
RAINBOW_CONTOUR
62
140
10
97
20
58
30
-4.600000000000001
11
0
21
59
31
5.049999999999999
0
LINE
8
RAINBOW_CONTOUR
62
140
10
21
20
59
30
2.9499999999999993
11
25
21
59
31
-10.450000000000001
0
LINE
8
RAINBOW_CONTOUR
62
140
10
96
20
59
30
-4.550000000000001
11
0
21
60
31
5
0
LINE
8
RAINBOW_CONTOUR
62
140
10
24
20
60
30
2.5999999999999996
11
25
21
60
31
2.5
0
LINE
8
RAINBOW_CONTOUR
62
140
10
25
20
60
30
2.5
11
26
21
60
31
-10.600000000000001
0
LINE
8
RAINBOW_CONTOUR
62
140
10
100
20
60
30
-5
11
0
21
61
31
4.949999999999999
0
LINE
8
RAINBOW_CONTOUR
62
140
10
24
20
61
30
2.5500000000000007
11
25
21
61
31
-10.55
0
LINE
8
RAINBOW_CONTOUR
62
140
10
99
20
61
30
-4.950000000000003
11
0
21
62
31
4.899999999999999
0
LINE
8
RAINBOW_CONTOUR
62
140
10
23
20
62
30
2.6000000000000014
11
25
21
62
31
-10.6
0
LINE
8
RAINBOW_CONTOUR
62
140
10
98
20
62
30
-4.899999999999999
11
0
21
63
31
4.850000000000001
0
LINE
8
RAINBOW_CONTOUR
62
140
10
22
20
63
30
2.6499999999999986
11
25
21
63
31
-10.649999999999999
0
LINE
8
RAINBOW_CONTOUR
62
140
10
97
20
63
30
-4.850000000000001
11
0
21
64
31
4.799999999999999
0
LINE
8
RAINBOW_CONTOUR
62
140
10
21
20
64
30
2.6999999999999993
11
25
21
64
31
-10.700000000000001
0
LINE
8
RAINBOW_CONTOUR
62
140
10
96
20
64
30
-4.800000000000001
11
0
21
65
31
4.75
0
LINE
8
RAINBOW_CONTOUR
62
140
10
22
20
65
30
2.549999999999999
11
23
21
65
31
2.4499999999999993
0
LINE
8
RAINBOW_CONTOUR
62
140
10
100
20
65
30
-5.25
11
0
21
66
31
4.699999999999999
0
LINE
8
RAINBOW_CONTOUR
62
140
10
21
20
66
30
2.5999999999999996
11
22
21
66
31
2.4999999999999982
0
LINE
8
RAINBOW_CONTOUR
62
140
10
99
20
66
30
-5.199999999999999
11
0
21
67
31
4.65
0
LINE
8
RAINBOW_CONTOUR
62
140
10
21
20
67
30
2.5500000000000007
11
22
21
67
31
2.4499999999999993
0
LINE
8
RAINBOW_CONTOUR
62
140
10
98
20
67
30
-5.149999999999999
11
0
21
68
31
4.6
0
LINE
8
RAINBOW_CONTOUR
62
140
10
20
20
68
30
2.6000000000000014
11
21
21
68
31
2.4999999999999982
0
LINE
8
RAINBOW_CONTOUR
62
140
10
97
20
68
30
-5.100000000000001
11
0
21
69
31
4.549999999999999
0
LINE
8
RAINBOW_CONTOUR
62
140
10
20
20
69
30
2.549999999999999
11
21
21
69
31
2.4499999999999993
0
LINE
8
RAINBOW_CONTOUR
62
140
10
96
20
69
30
-5.050000000000004
11
0
21
70
31
4.5
0
LINE
8
RAINBOW_CONTOUR
62
140
10
19
20
70
30
2.5999999999999996
11
20
21
70
31
2.5
0
LINE
8
RAINBOW_CONTOUR
62
140
10
20
20
70
30
2.5
11
21
21
70
31
2.3999999999999986
0
LINE
8
RAINBOW_CONTOUR
62
140
10
100
20
70
30
-5.5
11
0
21
71
31
4.449999999999999
0
LINE
8
RAINBOW_CONTOUR
62
140
10
19
20
71
30
2.5500000000000007
11
20
21
71
31
2.4499999999999993
0
LINE
8
RAINBOW_CONTOUR
62
140
10
99
20
71
30
-5.449999999999999
11
0
21
72
31
4.4
0
LINE
8
RAINBOW_CONTOUR
62
140
10
18
20
72
30
2.6000000000000014
11
20
21
72
31
2.4000000000000004
0
LINE
8
RAINBOW_CONTOUR
62
140
10
98
20
72
30
-5.399999999999999
11
0
21
73
31
4.35
0
LINE
8
RAINBOW_CONTOUR
62
140
10
17
20
73
30
2.6499999999999986
11
20
21
73
31
2.3500000000000014
0
LINE
8
RAINBOW_CONTOUR
62
140
10
97
20
73
30
-5.350000000000001
11
0
21
74
31
4.300000000000001
0
LINE
8
RAINBOW_CONTOUR
62
140
10
16
20
74
30
2.6999999999999993
11
20
21
74
31
2.299999999999999
0
LINE
8
RAINBOW_CONTOUR
62
140
10
96
20
74
30
-5.300000000000001
11
0
21
75
31
4.25
0
LINE
8
RAINBOW_CONTOUR
62
140
10
17
20
75
30
2.549999999999999
11
18
21
75
31
2.4499999999999993
0
LINE
8
RAINBOW_CONTOUR
62
140
10
100
20
75
30
-5.75
11
0
21
76
31
4.200000000000001
0
LINE
8
RAINBOW_CONTOUR
62
140
10
16
20
76
30
2.5999999999999996
11
17
21
76
31
2.4999999999999982
0
LINE
8
RAINBOW_CONTOUR
62
140
10
99
20
76
30
-5.699999999999999
11
0
21
77
31
4.149999999999999
0
LINE
8
RAINBOW_CONTOUR
62
140
10
16
20
77
30
2.5500000000000007
11
17
21
77
31
2.4499999999999993
0
LINE
8
RAINBOW_CONTOUR
62
140
10
98
20
77
30
-5.649999999999999
11
0
21
78
31
4.1
0
LINE
8
RAINBOW_CONTOUR
62
140
10
15
20
78
30
2.6000000000000014
11
16
21
78
31
2.4999999999999982
0
LINE
8
RAINBOW_CONTOUR
62
140
10
97
20
78
30
-5.600000000000001
11
0
21
79
31
4.049999999999999
0
LINE
8
RAINBOW_CONTOUR
62
140
10
15
20
79
30
2.549999999999999
11
16
21
79
31
2.4499999999999993
0
LINE
8
RAINBOW_CONTOUR
62
140
10
96
20
79
30
-5.550000000000001
11
0
21
80
31
4
0
LINE
8
RAINBOW_CONTOUR
62
140
10
14
20
80
30
2.5999999999999996
11
15
21
80
31
2.5
0
LINE
8
RAINBOW_CONTOUR
62
140
10
15
20
80
30
2.5
11
16
21
80
31
2.3999999999999986
0
LINE
8
RAINBOW_CONTOUR
62
140
10
100
20
80
30
-6
11
0
21
81
31
3.9499999999999993
0
LINE
8
RAINBOW_CONTOUR
62
140
10
14
20
81
30
2.5500000000000007
11
15
21
81
31
2.4499999999999993
0
LINE
8
RAINBOW_CONTOUR
62
140
10
99
20
81
30
-5.950000000000003
11
0
21
82
31
3.8999999999999986
0
LINE
8
RAINBOW_CONTOUR
62
140
10
13
20
82
30
2.6000000000000014
11
15
21
82
31
2.4000000000000004
0
LINE
8
RAINBOW_CONTOUR
62
140
10
98
20
82
30
-5.899999999999999
11
0
21
83
31
3.8500000000000014
0
LINE
8
RAINBOW_CONTOUR
62
140
10
12
20
83
30
2.6499999999999986
11
15
21
83
31
2.3500000000000014
0
LINE
8
RAINBOW_CONTOUR
62
140
10
97
20
83
30
-5.850000000000001
11
0
21
84
31
3.799999999999999
0
LINE
8
RAINBOW_CONTOUR
62
140
10
11
20
84
30
2.6999999999999993
11
15
21
84
31
2.299999999999999
0
LINE
8
RAINBOW_CONTOUR
62
140
10
96
20
84
30
-5.800000000000001
11
0
21
85
31
3.75
0
LINE
8
RAINBOW_CONTOUR
62
140
10
12
20
85
30
2.549999999999999
11
13
21
85
31
2.4499999999999993
0
LINE
8
RAINBOW_CONTOUR
62
140
10
100
20
85
30
-6.25
11
0
21
86
31
3.6999999999999993
0
LINE
8
RAINBOW_CONTOUR
62
140
10
11
20
86
30
2.5999999999999996
11
12
21
86
31
2.4999999999999982
0
LINE
8
RAINBOW_CONTOUR
62
140
10
99
20
86
30
-6.200000000000003
11
0
21
87
31
3.6500000000000004
0
LINE
8
RAINBOW_CONTOUR
62
140
10
11
20
87
30
2.5500000000000007
11
12
21
87
31
2.4499999999999993
0
LINE
8
RAINBOW_CONTOUR
62
140
10
98
20
87
30
-6.149999999999999
11
0
21
88
31
3.6000000000000014
0
LINE
8
RAINBOW_CONTOUR
62
140
10
10
20
88
30
2.6000000000000014
11
11
21
88
31
2.4999999999999982
0
LINE
8
RAINBOW_CONTOUR
62
140
10
97
20
88
30
-6.100000000000001
11
0
21
89
31
3.549999999999999
0
LINE
8
RAINBOW_CONTOUR
62
140
10
10
20
89
30
2.549999999999999
11
11
21
89
31
2.4499999999999993
0
LINE
8
RAINBOW_CONTOUR
62
140
10
96
20
89
30
-6.050000000000004
11
0
21
90
31
3.5
0
LINE
8
RAINBOW_CONTOUR
62
140
10
9
20
90
30
2.5999999999999996
11
10
21
90
31
2.5
0
LINE
8
RAINBOW_CONTOUR
62
140
10
10
20
90
30
2.5
11
11
21
90
31
2.3999999999999986
0
LINE
8
RAINBOW_CONTOUR
62
140
10
100
20
90
30
-6.5
11
0
21
91
31
3.4499999999999993
0
LINE
8
RAINBOW_CONTOUR
62
140
10
9
20
91
30
2.5500000000000007
11
10
21
91
31
2.4499999999999993
0
LINE
8
RAINBOW_CONTOUR
62
140
10
99
20
91
30
-6.449999999999999
11
0
21
92
31
3.4000000000000004
0
LINE
8
RAINBOW_CONTOUR
62
140
10
8
20
92
30
2.6000000000000014
11
10
21
92
31
2.4000000000000004
0
LINE
8
RAINBOW_CONTOUR
62
140
10
98
20
92
30
-6.399999999999999
11
0
21
93
31
3.3499999999999996
0
LINE
8
RAINBOW_CONTOUR
62
140
10
7
20
93
30
2.6499999999999986
11
10
21
93
31
2.3500000000000014
0
LINE
8
RAINBOW_CONTOUR
62
140
10
97
20
93
30
-6.350000000000001
11
0
21
94
31
3.299999999999999
0
LINE
8
RAINBOW_CONTOUR
62
140
10
6
20
94
30
2.6999999999999993
11
10
21
94
31
2.299999999999999
0
LINE
8
RAINBOW_CONTOUR
62
140
10
96
20
94
30
-6.300000000000004
11
0
21
95
31
3.25
0
LINE
8
RAINBOW_CONTOUR
62
140
10
7
20
95
30
2.549999999999999
11
8
21
95
31
2.4499999999999993
0
LINE
8
RAINBOW_CONTOUR
62
140
10
100
20
95
30
-6.75
11
0
21
96
31
3.1999999999999993
0
LINE
8
RAINBOW_CONTOUR
62
140
10
6
20
96
30
2.5999999999999996
11
7
21
96
31
2.4999999999999982
0
LINE
8
RAINBOW_CONTOUR
62
140
10
99
20
96
30
-6.699999999999999
11
0
21
97
31
3.1500000000000004
0
LINE
8
RAINBOW_CONTOUR
62
140
10
6
20
97
30
2.5500000000000007
11
7
21
97
31
2.4499999999999993
0
LINE
8
RAINBOW_CONTOUR
62
140
10
98
20
97
30
-6.649999999999999
11
0
21
98
31
3.0999999999999996
0
LINE
8
RAINBOW_CONTOUR
62
140
10
5
20
98
30
2.6000000000000014
11
6
21
98
31
2.4999999999999982
0
LINE
8
RAINBOW_CONTOUR
62
140
10
97
20
98
30
-6.600000000000001
11
0
21
99
31
3.0500000000000007
0
LINE
8
RAINBOW_CONTOUR
62
140
10
5
20
99
30
2.549999999999999
11
6
21
99
31
2.4499999999999993
0
LINE
8
RAINBOW_CONTOUR
62
140
10
96
20
99
30
-6.550000000000001
11
0
21
100
31
3
0
LINE
8
RAINBOW_CONTOUR
62
140
10
0
20
100
30
3
11
5
21
100
31
2.5
0
LINE
8
RAINBOW_CONTOUR
62
140
10
5
20
100
30
2.5
11
10
21
100
31
2
0
LINE
8
RAINBOW_CONTOUR
62
140
10
29
20
0
30
5.1
11
30
21
0
31
5
0
LINE
8
RAINBOW_CONTOUR
62
140
10
30
20
0
30
5
11
31
21
0
31
4.899999999999999
0
LINE
8
RAINBOW_CONTOUR
62
140
10
100
20
0
30
-2
11
0
21
1
31
7.950000000000001
0
LINE
8
RAINBOW_CONTOUR
62
140
10
29
20
1
30
5.050000000000001
11
30
21
1
31
4.949999999999999
0
LINE
8
RAINBOW_CONTOUR
62
140
10
99
20
1
30
-1.9499999999999993
11
0
21
2
31
7.899999999999999
0
LINE
8
RAINBOW_CONTOUR
62
140
10
28
20
2
30
5.1
11
30
21
2
31
4.899999999999999
0
LINE
8
RAINBOW_CONTOUR
62
140
10
98
20
2
30
-1.8999999999999986
11
0
21
3
31
7.850000000000001
0
LINE
8
RAINBOW_CONTOUR
62
140
10
27
20
3
30
5.15
11
30
21
3
31
4.850000000000001
0
LINE
8
RAINBOW_CONTOUR
62
140
10
97
20
3
30
-1.8500000000000014
11
0
21
4
31
7.799999999999999
0
LINE
8
RAINBOW_CONTOUR
62
140
10
26
20
4
30
5.199999999999999
11
30
21
4
31
4.799999999999999
0
LINE
8
RAINBOW_CONTOUR
62
140
10
96
20
4
30
-1.8000000000000007
11
0
21
5
31
7.75
0
LINE
8
RAINBOW_CONTOUR
62
140
10
27
20
5
30
5.050000000000001
11
28
21
5
31
4.949999999999999
0
LINE
8
RAINBOW_CONTOUR
62
140
10
100
20
5
30
-2.25
11
0
21
6
31
7.699999999999999
0
LINE
8
RAINBOW_CONTOUR
62
140
10
26
20
6
30
5.1
11
27
21
6
31
4.999999999999998
0
LINE
8
RAINBOW_CONTOUR
62
140
10
99
20
6
30
-2.1999999999999993
11
0
21
7
31
7.65
0
LINE
8
RAINBOW_CONTOUR
62
140
10
26
20
7
30
5.050000000000001
11
27
21
7
31
4.949999999999999
0
LINE
8
RAINBOW_CONTOUR
62
140
10
98
20
7
30
-2.1499999999999986
11
0
21
8
31
7.6
0
LINE
8
RAINBOW_CONTOUR
62
140
10
25
20
8
30
5.1
11
26
21
8
31
4.999999999999998
0
LINE
8
RAINBOW_CONTOUR
62
140
10
97
20
8
30
-2.1000000000000014
11
0
21
9
31
7.549999999999999
0
LINE
8
RAINBOW_CONTOUR
62
140
10
25
20
9
30
5.049999999999999
11
26
21
9
31
4.949999999999999
0
LINE
8
RAINBOW_CONTOUR
62
140
10
96
20
9
30
-2.0500000000000007
11
0
21
10
31
7.5
0
LINE
8
RAINBOW_CONTOUR
62
140
10
24
20
10
30
5.1
11
25
21
10
31
5
0
LINE
8
RAINBOW_CONTOUR
62
140
10
25
20
10
30
5
11
26
21
10
31
4.899999999999999
0
LINE
8
RAINBOW_CONTOUR
62
140
10
100
20
10
30
-2.5
11
0
21
11
31
7.449999999999999
0
LINE
8
RAINBOW_CONTOUR
62
140
10
24
20
11
30
5.050000000000001
11
25
21
11
31
4.949999999999999
0
LINE
8
RAINBOW_CONTOUR
62
140
10
99
20
11
30
-2.450000000000003
11
0
21
12
31
7.4
0
LINE
8
RAINBOW_CONTOUR
62
140
10
23
20
12
30
5.1
11
25
21
12
31
4.899999999999999
0
LINE
8
RAINBOW_CONTOUR
62
140
10
98
20
12
30
-2.3999999999999986
11
0
21
13
31
7.35
0
LINE
8
RAINBOW_CONTOUR
62
140
10
22
20
13
30
5.15
11
25
21
13
31
4.850000000000001
0
LINE
8
RAINBOW_CONTOUR
62
140
10
97
20
13
30
-2.3500000000000014
11
0
21
14
31
7.300000000000001
0
LINE
8
RAINBOW_CONTOUR
62
140
10
21
20
14
30
5.199999999999999
11
25
21
14
31
4.799999999999999
0
LINE
8
RAINBOW_CONTOUR
62
140
10
96
20
14
30
-2.3000000000000007
11
0
21
15
31
7.25
0
LINE
8
RAINBOW_CONTOUR
62
140
10
22
20
15
30
5.050000000000001
11
23
21
15
31
4.949999999999999
0
LINE
8
RAINBOW_CONTOUR
62
140
10
100
20
15
30
-2.75
11
0
21
16
31
7.200000000000001
0
LINE
8
RAINBOW_CONTOUR
62
140
10
21
20
16
30
5.1
11
22
21
16
31
4.999999999999998
0
LINE
8
RAINBOW_CONTOUR
62
140
10
99
20
16
30
-2.6999999999999993
11
0
21
17
31
7.149999999999999
0
LINE
8
RAINBOW_CONTOUR
62
140
10
21
20
17
30
5.050000000000001
11
22
21
17
31
4.949999999999999
0
LINE
8
RAINBOW_CONTOUR
62
140
10
98
20
17
30
-2.6499999999999986
11
0
21
18
31
7.100000000000001
0
LINE
8
RAINBOW_CONTOUR
62
140
10
20
20
18
30
5.1
11
21
21
18
31
4.999999999999998
0
LINE
8
RAINBOW_CONTOUR
62
140
10
97
20
18
30
-2.6000000000000014
11
0
21
19
31
7.049999999999999
0
LINE
8
RAINBOW_CONTOUR
62
140
10
20
20
19
30
5.049999999999999
11
21
21
19
31
4.949999999999999
0
LINE
8
RAINBOW_CONTOUR
62
140
10
96
20
19
30
-2.5500000000000043
11
0
21
20
31
7
0
LINE
8
RAINBOW_CONTOUR
62
140
10
19
20
20
30
5.1
11
20
21
20
31
5
0
LINE
8
RAINBOW_CONTOUR
62
140
10
20
20
20
30
5
11
21
21
20
31
4.899999999999999
0
LINE
8
RAINBOW_CONTOUR
62
140
10
100
20
20
30
-3
11
0
21
21
31
6.949999999999999
0
LINE
8
RAINBOW_CONTOUR
62
140
10
19
20
21
30
5.050000000000001
11
20
21
21
31
4.949999999999999
0
LINE
8
RAINBOW_CONTOUR
62
140
10
99
20
21
30
-2.9499999999999993
11
0
21
22
31
6.9
0
LINE
8
RAINBOW_CONTOUR
62
140
10
18
20
22
30
5.1
11
20
21
22
31
4.899999999999999
0
LINE
8
RAINBOW_CONTOUR
62
140
10
98
20
22
30
-2.8999999999999986
11
0
21
23
31
6.85
0
LINE
8
RAINBOW_CONTOUR
62
140
10
17
20
23
30
5.15
11
20
21
23
31
4.850000000000001
0
LINE
8
RAINBOW_CONTOUR
62
140
10
97
20
23
30
-2.8500000000000014
11
0
21
24
31
6.800000000000001
0
LINE
8
RAINBOW_CONTOUR
62
140
10
16
20
24
30
5.199999999999999
11
20
21
24
31
4.799999999999999
0
LINE
8
RAINBOW_CONTOUR
62
140
10
96
20
24
30
-2.8000000000000007
11
0
21
25
31
6.75
0
LINE
8
RAINBOW_CONTOUR
62
140
10
17
20
25
30
5.050000000000001
11
18
21
25
31
4.949999999999999
0
LINE
8
RAINBOW_CONTOUR
62
140
10
100
20
25
30
-3.25
11
0
21
26
31
6.700000000000001
0
LINE
8
RAINBOW_CONTOUR
62
140
10
16
20
26
30
5.1
11
17
21
26
31
4.999999999999998
0
LINE
8
RAINBOW_CONTOUR
62
140
10
99
20
26
30
-3.1999999999999993
11
0
21
27
31
6.649999999999999
0
LINE
8
RAINBOW_CONTOUR
62
140
10
16
20
27
30
5.050000000000001
11
17
21
27
31
4.949999999999999
0
LINE
8
RAINBOW_CONTOUR
62
140
10
98
20
27
30
-3.1499999999999986
11
0
21
28
31
6.600000000000001
0
LINE
8
RAINBOW_CONTOUR
62
140
10
15
20
28
30
5.1
11
16
21
28
31
4.999999999999998
0
LINE
8
RAINBOW_CONTOUR
62
140
10
97
20
28
30
-3.1000000000000014
11
0
21
29
31
6.549999999999999
0
LINE
8
RAINBOW_CONTOUR
62
140
10
15
20
29
30
5.049999999999999
11
16
21
29
31
4.949999999999999
0
LINE
8
RAINBOW_CONTOUR
62
140
10
96
20
29
30
-3.0500000000000007
11
0
21
30
31
6.5
0
LINE
8
RAINBOW_CONTOUR
62
140
10
14
20
30
30
5.1
11
15
21
30
31
5
0
LINE
8
RAINBOW_CONTOUR
62
140
10
15
20
30
30
5
11
16
21
30
31
4.899999999999999
0
LINE
8
RAINBOW_CONTOUR
62
140
10
100
20
30
30
-3.5
11
0
21
31
31
6.449999999999999
0
LINE
8
RAINBOW_CONTOUR
62
140
10
14
20
31
30
5.050000000000001
11
15
21
31
31
4.949999999999999
0
LINE
8
RAINBOW_CONTOUR
62
140
10
99
20
31
30
-3.4499999999999993
11
0
21
32
31
6.4
0
LINE
8
RAINBOW_CONTOUR
62
140
10
13
20
32
30
5.1
11
15
21
32
31
4.899999999999999
0
LINE
8
RAINBOW_CONTOUR
62
140
10
98
20
32
30
-3.3999999999999986
11
0
21
33
31
6.35
0
LINE
8
RAINBOW_CONTOUR
62
140
10
12
20
33
30
5.15
11
15
21
33
31
4.850000000000001
0
LINE
8
RAINBOW_CONTOUR
62
140
10
97
20
33
30
-3.3500000000000014
11
0
21
34
31
6.299999999999999
0
LINE
8
RAINBOW_CONTOUR
62
140
10
11
20
34
30
5.199999999999999
11
15
21
34
31
4.799999999999999
0
LINE
8
RAINBOW_CONTOUR
62
140
10
96
20
34
30
-3.3000000000000007
11
0
21
35
31
6.25
0
LINE
8
RAINBOW_CONTOUR
62
140
10
12
20
35
30
5.050000000000001
11
13
21
35
31
4.949999999999999
0
LINE
8
RAINBOW_CONTOUR
62
140
10
100
20
35
30
-3.75
11
0
21
36
31
6.199999999999999
0
LINE
8
RAINBOW_CONTOUR
62
140
10
11
20
36
30
5.1
11
12
21
36
31
4.999999999999998
0
LINE
8
RAINBOW_CONTOUR
62
140
10
99
20
36
30
-3.700000000000003
11
0
21
37
31
6.149999999999999
0
LINE
8
RAINBOW_CONTOUR
62
140
10
11
20
37
30
5.050000000000001
11
12
21
37
31
4.949999999999999
0
LINE
8
RAINBOW_CONTOUR
62
140
10
98
20
37
30
-3.6499999999999986
11
0
21
38
31
6.100000000000001
0
LINE
8
RAINBOW_CONTOUR
62
140
10
10
20
38
30
5.1
11
11
21
38
31
4.999999999999998
0
LINE
8
RAINBOW_CONTOUR
62
140
10
97
20
38
30
-3.6000000000000014
11
0
21
39
31
6.049999999999999
0
LINE
8
RAINBOW_CONTOUR
62
140
10
10
20
39
30
5.049999999999999
11
11
21
39
31
4.949999999999999
0
LINE
8
RAINBOW_CONTOUR
62
140
10
96
20
39
30
-3.5500000000000007
11
0
21
40
31
6
0
LINE
8
RAINBOW_CONTOUR
62
140
10
9
20
40
30
5.1
11
10
21
40
31
5
0
LINE
8
RAINBOW_CONTOUR
62
140
10
10
20
40
30
5
11
11
21
40
31
4.899999999999999
0
LINE
8
RAINBOW_CONTOUR
62
140
10
100
20
40
30
-4
11
0
21
41
31
5.949999999999999
0
LINE
8
RAINBOW_CONTOUR
62
140
10
9
20
41
30
5.050000000000001
11
10
21
41
31
4.949999999999999
0
LINE
8
RAINBOW_CONTOUR
62
140
10
99
20
41
30
-3.9499999999999993
11
0
21
42
31
5.9
0
LINE
8
RAINBOW_CONTOUR
62
140
10
8
20
42
30
5.1
11
10
21
42
31
4.899999999999999
0
LINE
8
RAINBOW_CONTOUR
62
140
10
98
20
42
30
-3.8999999999999986
11
0
21
43
31
5.85
0
LINE
8
RAINBOW_CONTOUR
62
140
10
7
20
43
30
5.15
11
10
21
43
31
4.850000000000001
0
LINE
8
RAINBOW_CONTOUR
62
140
10
97
20
43
30
-3.8500000000000014
11
0
21
44
31
5.799999999999999
0
LINE
8
RAINBOW_CONTOUR
62
140
10
6
20
44
30
5.199999999999999
11
10
21
44
31
4.799999999999999
0
LINE
8
RAINBOW_CONTOUR
62
140
10
96
20
44
30
-3.8000000000000043
11
0
21
45
31
5.75
0
LINE
8
RAINBOW_CONTOUR
62
140
10
7
20
45
30
5.050000000000001
11
8
21
45
31
4.949999999999999
0
LINE
8
RAINBOW_CONTOUR
62
140
10
100
20
45
30
-4.25
11
0
21
46
31
5.699999999999999
0
LINE
8
RAINBOW_CONTOUR
62
140
10
6
20
46
30
5.1
11
7
21
46
31
4.999999999999998
0
LINE
8
RAINBOW_CONTOUR
62
140
10
99
20
46
30
-4.199999999999999
11
0
21
47
31
5.65
0
LINE
8
RAINBOW_CONTOUR
62
140
10
6
20
47
30
5.050000000000001
11
7
21
47
31
4.949999999999999
0
LINE
8
RAINBOW_CONTOUR
62
140
10
98
20
47
30
-4.149999999999999
11
0
21
48
31
5.6
0
LINE
8
RAINBOW_CONTOUR
62
140
10
5
20
48
30
5.1
11
6
21
48
31
4.999999999999998
0
LINE
8
RAINBOW_CONTOUR
62
140
10
97
20
48
30
-4.100000000000001
11
0
21
49
31
5.550000000000001
0
LINE
8
RAINBOW_CONTOUR
62
140
10
5
20
49
30
5.049999999999999
11
6
21
49
31
4.949999999999999
0
LINE
8
RAINBOW_CONTOUR
62
140
10
96
20
49
30
-4.050000000000001
11
0
21
50
31
5.5
0
LINE
8
RAINBOW_CONTOUR
62
140
10
4
20
50
30
5.1
11
5
21
50
31
5
0
LINE
8
RAINBOW_CONTOUR
62
140
10
5
20
50
30
5
11
6
21
50
31
4.899999999999999
0
LINE
8
RAINBOW_CONTOUR
62
140
10
100
20
50
30
-4.5
11
0
21
51
31
5.450000000000001
0
LINE
8
RAINBOW_CONTOUR
62
140
10
4
20
51
30
5.050000000000001
11
5
21
51
31
4.949999999999999
0
LINE
8
RAINBOW_CONTOUR
62
140
10
99
20
51
30
-4.449999999999999
11
0
21
52
31
5.399999999999999
0
LINE
8
RAINBOW_CONTOUR
62
140
10
3
20
52
30
5.1
11
5
21
52
31
4.899999999999999
0
LINE
8
RAINBOW_CONTOUR
62
140
10
98
20
52
30
-4.399999999999999
11
0
21
53
31
5.350000000000001
0
LINE
8
RAINBOW_CONTOUR
62
140
10
2
20
53
30
5.15
11
5
21
53
31
4.850000000000001
0
LINE
8
RAINBOW_CONTOUR
62
140
10
97
20
53
30
-4.350000000000001
11
0
21
54
31
5.299999999999999
0
LINE
8
RAINBOW_CONTOUR
62
140
10
1
20
54
30
5.199999999999999
11
5
21
54
31
4.799999999999999
0
LINE
8
RAINBOW_CONTOUR
62
140
10
96
20
54
30
-4.300000000000001
11
0
21
55
31
5.25
0
LINE
8
RAINBOW_CONTOUR
62
140
10
2
20
55
30
5.050000000000001
11
3
21
55
31
4.949999999999999
0
LINE
8
RAINBOW_CONTOUR
62
140
10
100
20
55
30
-4.75
11
0
21
56
31
5.199999999999999
0
LINE
8
RAINBOW_CONTOUR
62
140
10
1
20
56
30
5.1
11
2
21
56
31
4.999999999999998
0
LINE
8
RAINBOW_CONTOUR
62
140
10
99
20
56
30
-4.699999999999999
11
0
21
57
31
5.15
0
LINE
8
RAINBOW_CONTOUR
62
140
10
1
20
57
30
5.050000000000001
11
2
21
57
31
4.949999999999999
0
LINE
8
RAINBOW_CONTOUR
62
140
10
98
20
57
30
-4.649999999999999
11
0
21
58
31
5.1
0
LINE
8
RAINBOW_CONTOUR
62
140
10
0
20
58
30
5.1
11
1
21
58
31
4.999999999999998
0
LINE
8
RAINBOW_CONTOUR
62
140
10
97
20
58
30
-4.600000000000001
11
0
21
59
31
5.049999999999999
0
LINE
8
RAINBOW_CONTOUR
62
140
10
0
20
59
30
5.049999999999999
11
1
21
59
31
4.949999999999999
0
LINE
8
RAINBOW_CONTOUR
62
140
10
96
20
59
30
-4.550000000000001
11
0
21
60
31
5
0
LINE
8
RAINBOW_CONTOUR
62
140
10
0
20
60
30
5
11
1
21
60
31
4.899999999999999
0
LINE
8
RAINBOW_CONTOUR
62
140
10
0
20
0
30
8
11
1
21
0
31
7.9
0
ENDSEC
0
EOF
